  <svg viewBox="0 0 30 30" xmlns="http://www.w3.org/2000/svg" class="icon icon-filters-toggle"><path d="M15 0a15 15 0 1 0 15 15A15 15 0 0 0 15 0zm.32 17.93a.66.66 0 0 1 .66-.67.67.67 0 0 1 0 1.34.66.66 0 0 1-.66-.67zm.93 4.67a.67.67 0 1 1 .67-.67.67.67 0 0 1-.67.67zm2.13-2.4a.67.67 0 1 1 .67-.67.67.67 0 0 1-.67.67zm2.88-5.76l-2.52 2.61-.19.08-.19-.07L14 12.83v6a.27.27 0 0 1-.26.27h-3.23a4.16 4.16 0 0 1-2.8-1.07 3.45 3.45 0 0 1-1.19-2.55A3.36 3.36 0 0 1 7.71 13a4.2 4.2 0 0 1 2.81-1.05h3.09l2.66-2.49A4.23 4.23 0 0 1 19 8.2a3.28 3.28 0 0 1 3.55 3.55 4.13 4.13 0 0 1-1.29 2.69z" fill-rule="evenodd"></path></svg>