  <svg viewBox="0 0 30 30" xmlns="http://www.w3.org/2000/svg" class="icon icon-filters-toggle">
  <path d="M-217.56-197.08a1.73 1.73 0 0 0 1.72-1.72 1.72 1.72 0 0 0-1.72-1.72 1.72 1.72 0 0 0-1.72 1.72 1.73 1.73 0 0 0 1.72 1.72zM-217.56-195.74a2.84 2.84 0 0 0-2.84 2.84h5.68a2.84 2.84 0 0 0-2.84-2.84z" transform="translate(240 212)"></path>
  <path d="M-225-212a15 15 0 0 0-15 15 15 15 0 0 0 15 15 15 15 0 0 0 15-15 15 15 0 0 0-15-15zm7.44 11a2.22 2.22 0 0 1 2.22 2.22 2.22 2.22 0 0 1-2.22 2.21 2.22 2.22 0 0 1-2.22-2.21 2.22 2.22 0 0 1 2.22-2.22zm-5.6 2.2l-2.15 1.92a1.87 1.87 0 0 1-.74-.22l2.77-2.42a2 2 0 0 1 .12.7zm-.07.49a2 2 0 0 1-1.59 1.43zm-.2-1.5l-2.9 2.53a1.87 1.87 0 0 1-.46-.51l2.92-2.54a1.84 1.84 0 0 1 .44.5zm-2-1l-1.56 1.4a2 2 0 0 1 1.55-1.38zm.49 0a2 2 0 0 1 .81.26l-2.8 2.44a1.89 1.89 0 0 1-.15-.79zm-.62 4.81l-2.58 2.41a3.11 3.11 0 0 1 2.57-2.41zm-7.16-5a2.21 2.21 0 0 1 2.22 2.21 2.21 2.21 0 0 1-2.22 2.22 2.21 2.21 0 0 1-2.21-2.22 2.21 2.21 0 0 1 2.2-2.21zm3.35 8.65h-6.69v-.53a3.34 3.34 0 0 1 3.34-3.34 3.35 3.35 0 0 1 3.35 3.34zm1.17-.32v-.43l3.14-2.94a3.36 3.36 0 0 1 .84.14l-3.52 3.23zm.94 0l3.39-3.11a2.91 2.91 0 0 1 .67.42l-2.94 2.69zm1.59 0l2.72-2.49a2.92 2.92 0 0 1 .42.51l-2.16 2zm1.45 0l1.85-1.69a3.29 3.29 0 0 1 .26.68l-1.08 1zm2.2 0h-.71l.68-.63v.35zm1.38.29h-.25v-.53a3.35 3.35 0 0 1 3.34-3.34 3.35 3.35 0 0 1 3.34 3.34v.53z" transform="translate(240 212)"></path>
  </svg>