  <svg viewBox="0 0 30 30" xmlns="http://www.w3.org/2000/svg" class="icon icon-filters-toggle">
  <path d="M-225-202l1-1.37a6.93 6.93 0 0 0-2.52-.23l.07 2z" transform="translate(240 212)"></path>
  <path d="M8.92 14.8l.09 1.47-.01.06-.7 1.54v.89l3.04-2.58-1.14-2.55-1.28 1.17z"></path>
  <path d="M-228.7-201.53h-.11l-.07-.09-.15-1 .05-.11 1.24-1 .7-.51a7.61 7.61 0 0 0-5 4.23l.12.46.78.88-.26-1v-.11l.44-.46h.12l.94.32 2.22-.73-.32-1.35z" transform="translate(240 212)"></path>
  <path d="M-225-212a15 15 0 0 0-15 15 15 15 0 0 0 15 15 15 15 0 0 0 15-15 15 15 0 0 0-15-15zm0 23.53a8.52 8.52 0 0 1-8.5-8.53 8.52 8.52 0 0 1 8.5-8.5 8.52 8.52 0 0 1 8.52 8.51 8.53 8.53 0 0 1-8.52 8.52z" transform="translate(240 212)"></path>
  <path d="M-222-200.11l-.89-.83-1.38.46.13.82-1.22.14-.08.32.93.62.92 1.19-1.21-.21-.33-.51-.83-.15-1.1 1.16.08.84.88.43-.48 2v1.29l.67-.11 2.46-2.39-.56-.56.23-1 .74.73.24.19.86-.45.14 1.43 1.24-.22.08 1.56 1.92-1.61 1.06-.82a7.65 7.65 0 0 0-.65-4.18l-1.86.14z" transform="translate(240 212)"></path>
  </svg>