  <svg viewBox="0 0 30 30" xmlns="http://www.w3.org/2000/svg" class="icon icon-filters-toggle">
  <path d="M14.08 17.05a.65.65 0 0 1-.36.85l-.24.05a.65.65 0 0 1-.61-.41c-.95-2.33-.1-3.66.49-4.24a3.22 3.22 0 0 1 1.18-.75v-1.89c-1.71 1.35-3.39 3-3.39 5.3a3.7 3.7 0 0 0 3.39 3.69V14a2.75 2.75 0 0 0-.26.22c-.63.63-.7 1.61-.2 2.83zM16.36 7.46c.26-.6.08-.92-.06-1a.49.49 0 0 0-.3-.22h-.05s-.06.08-.06.23V8a2.28 2.28 0 0 0 .47-.54z"></path>
  <path d="M15 0a15 15 0 1 0 15 15A15 15 0 0 0 15 0zm.85 20.87v2.93a2.71 2.71 0 0 1-.46 1.63 1.82 1.82 0 0 1-3.21-.43 1.89 1.89 0 0 1 .13-1.5 1.68 1.68 0 0 1 1.1-.85h.14A.65.65 0 0 1 13.7 24a.32.32 0 0 0-.23.19.6.6 0 0 0-.07.42.52.52 0 0 0 .49.34H14c.35-.07.57-.5.57-1.12V21a5 5 0 0 1-4.7-5 6.54 6.54 0 0 1 1.77-4.34A17.8 17.8 0 0 1 14.54 9V6.48A1.45 1.45 0 0 1 15.42 5a1.41 1.41 0 0 1 .58-.07 1.83 1.83 0 0 1 1.28.56A2.19 2.19 0 0 1 17.56 8a5.23 5.23 0 0 1-1.71 1.69v2.62H16a4.36 4.36 0 0 1 1.64.32 3.76 3.76 0 0 1 1.57 1.23 3.64 3.64 0 0 1 .64 2.14 5 5 0 0 1-4 4.87z"></path>
  <path d="M17.13 13.82a2.89 2.89 0 0 0-1.13-.23h-.15v5.92A3.69 3.69 0 0 0 18.54 16a2.2 2.2 0 0 0-1.41-2.18z"></path>
  </svg>