  <svg viewBox="0 0 30 30" xmlns="http://www.w3.org/2000/svg" class="icon">
  <path d="M-227.86-195.66a.5.5 0 0 0 .5-.51.5.5 0 0 0-.5-.51.51.51 0 0 0-.51.51.51.51 0 0 0 .51.51zM-221.88-196.68a.51.51 0 0 0-.51.51.51.51 0 0 0 .51.51.51.51 0 0 0 .51-.51.51.51 0 0 0-.51-.51zM-226.92-193.18l-.24.43a4.75 4.75 0 0 0 2.29.58 4.94 4.94 0 0 0 1.89-.38l-.2-.46a4.34 4.34 0 0 1-3.74-.17z" transform="translate(240 212)"></path>
  <path d="M-225-212a15 15 0 0 0-15 15 15 15 0 0 0 15 15 15 15 0 0 0 15-15 15 15 0 0 0-15-15zm.13 7a8 8 0 0 1 6.87 3.89l-1.09 2.9a4.28 4.28 0 0 0-2.37-.41c-1 0-2.48.32-2.91 1.13a1.25 1.25 0 0 0-.53-.12 1.3 1.3 0 0 0-.54.12c-.43-.81-1.91-1.13-2.91-1.13a4.48 4.48 0 0 0-2.32.38l-1.08-2.87a8 8 0 0 1 6.88-3.89zm5.44 7.93a2.61 2.61 0 0 1-.48 1.86 1.87 1.87 0 0 1-1.35.44h-.61c-1.28 0-1.83-1.6-1.83-2.24 0-.37 1-.82 2.24-.82 2 0 2 .29 2 .64zm-6.68.06c0 .64-.54 2.24-1.83 2.24h-.61a1.83 1.83 0 0 1-1.34-.44 2.62 2.62 0 0 1-.49-1.86v-.12c0-.35 0-.64 2-.64 1.24.02 2.27.47 2.27.83zm1.24 8.07a8 8 0 0 1-8-8 7.94 7.94 0 0 1 .67-3.2l1.07 2.85v.24a3.3 3.3 0 0 0 .71 2.42 2.59 2.59 0 0 0 1.91.68h.64c1.61 0 2.38-1.63 2.55-2.63a.71.71 0 0 1 .46-.2.65.65 0 0 1 .45.2c.17 1 .94 2.61 2.56 2.63h.63a2.59 2.59 0 0 0 1.91-.68 3.31 3.31 0 0 0 .72-2.42v-.2l1.09-2.89a7.94 7.94 0 0 1 .67 3.2 8 8 0 0 1-8.04 8.02z" transform="translate(240 212)"></path>
  </svg>