<svg id="Layer_1" data-name="Layer 1" xmlns="http://www.w3.org/2000/svg" viewBox="0 0 239 310">
  <defs>
    <style>
      .cls-1 {
        fill: #fff;
      }

      .cls-1, .cls-2, .cls-3, .cls-4 {
        stroke: #eb6c39;
        stroke-miterlimit: 10;
      }

      .cls-1, .cls-2, .cls-3 {
        stroke-width: 11px;
      }

      .cls-2 {
        fill: none;
      }

      .cls-3, .cls-4, .cls-5 {
        fill: #eb6c39;
      }

      .cls-4 {
        stroke-width: 3.5px;
      }
    </style>
  </defs>
  <rect class="cls-1" x="5.5" y="5.5" width="228" height="299" rx="25.22721"/>
  <line class="cls-2" x1="5.39625" y1="128.61866" x2="233.41819" y2="128.61866"/>
  <rect class="cls-3" x="32.08099" y="241.74516" width="174.65246" height="27.85624" rx="3.16938"/>
  <rect class="cls-4" x="30.8954" y="154.42081" width="174.65246" height="7.28552" rx="3.64276"/>
  <rect class="cls-4" x="30.97714" y="179.72011" width="174.65246" height="7.28552" rx="3.64276"/>
  <rect class="cls-4" x="30.76182" y="204.79167" width="174.65246" height="7.28552" rx="3.64276"/>
  <g id="EnhffM.tif">
    <g>
      <path class="cls-5" d="M197.383,138.11994c-3.36995-3.46027-6.3596-6.61026-9.43735-9.67174-4.78981-4.76449-9.71542-4.44088-13.77061.93475Q162.79167,144.473,151.508,159.63817a14.66093,14.66093,0,0,0-1.80815,3.06668,7.86979,7.86979,0,0,0,2.82462,9.51257,8.01393,8.01393,0,0,0,10.18314-.7746,22.01418,22.01418,0,0,0,2.076-2.50766q7.81428-10.43427,15.61069-20.88192c.56213-.75061,1.20376-1.44174,1.919-2.29172.94549.88825,1.74742,1.60182,2.50507,2.35963q10.72011,10.72242,21.43174,21.45333a24.842,24.842,0,0,0,2.637,2.42179,7.82329,7.82329,0,0,0,10.4106-.64846,8.05509,8.05509,0,0,0,.88043-10.42935,31.38314,31.38314,0,0,0-3.08855-3.34889c-2.63876-2.68611-5.30167-5.34851-7.87612-7.94112l4.73191-4.49241c.64332.612,1.43764,1.33451,2.19549,2.09347q15.20744,15.22948,30.41258,30.46127a23.23249,23.23249,0,0,0,2.91393,2.59631,7.7404,7.7404,0,0,0,10.13067-.72239,8.17978,8.17978,0,0,0,.91194-10.71345,24.924,24.924,0,0,0-2.429-2.63054q-18.68994-18.66456-37.39475-37.31422c-.61533-.61374-1.21442-1.251-1.882-1.80389a7.73972,7.73972,0,0,0-10.17175-.0885c-1.1766.95508-2.20707,2.09227-3.28661,3.1641C202.81338,132.69271,200.29137,135.21788,197.383,138.11994Z" transform="translate(-91.5 -70.5)"/>
      <path class="cls-5" d="M197.383,138.11994c2.90833-2.90206,5.43034-5.42723,7.96294-7.94174,1.07954-1.07183,2.11-2.209,3.28661-3.1641a7.73972,7.73972,0,0,1,10.17175.0885c.66756.55285,1.26665,1.19015,1.882,1.80389q18.7014,18.65307,37.39475,37.31422a24.924,24.924,0,0,1,2.429,2.63054,8.17978,8.17978,0,0,1-.91194,10.71345,7.7404,7.7404,0,0,1-10.13067.72239,23.23249,23.23249,0,0,1-2.91393-2.59631q-15.2175-15.21945-30.41258-30.46127c-.75785-.759-1.55217-1.48151-2.19549-2.09347l-4.73191,4.49241c2.57445,2.59261,5.23736,5.255,7.87612,7.94112a31.38314,31.38314,0,0,1,3.08855,3.34889,8.05509,8.05509,0,0,1-.88043,10.42935,7.82329,7.82329,0,0,1-10.4106.64846,24.842,24.842,0,0,1-2.637-2.42179q-10.72369-10.71885-21.43174-21.45333c-.75765-.75781-1.55958-1.47138-2.50507-2.35963-.7152.85-1.35683,1.54111-1.919,2.29172q-7.81436,10.43422-15.61069,20.88192a22.01418,22.01418,0,0,1-2.076,2.50766,8.01393,8.01393,0,0,1-10.18314.7746,7.86979,7.86979,0,0,1-2.82462-9.51257,14.66093,14.66093,0,0,1,1.80815-3.06668Q162.81131,144.488,174.17508,129.383c4.05519-5.37563,8.9808-5.69924,13.77061-.93475C191.02344,131.50968,194.01309,134.65967,197.383,138.11994Z" transform="translate(-91.5 -70.5)"/>
      <path class="cls-5" d="M254.42369,133.91014a16.20342,16.20342,0,1,1,16.08477-16.32722A16.39649,16.39649,0,0,1,254.42369,133.91014Z" transform="translate(-91.5 -70.5)"/>
    </g>
  </g>
</svg>
