<svg viewBox="0 0 6941.7 1934.17" xmlns="http://www.w3.org/2000/svg"><path d="M1680 1934.17H320c-176.73 0-320-143.27-320-320V0h1680c176.73 0 320 143.27 320 320v1294.17c0 176.73-143.27 320-320 320z" fill="#0054a1"/><path d="M655.3 1288.47c-.96.81-2.06 1.62-3.02 2.58-13.67 13.63-30.09 22.18-48.78 26.58-19.64 4.62-39.42 5.46-59.15 1.08-31.93-7.09-52.56-26.28-60.41-58.34-4.53-18.53-4.34-37.19.09-55.76 4.6-19.29 15.72-33.76 32.62-43.95 10.16-6.13 21.16-10.23 32.52-13.4 18.39-5.13 37.21-7.93 56.13-10.25 11.39-1.39 22.81-2.48 34.12-4.61 8.89-1.67 13.64-5.29 13.6-16.85-.01-1.68-.1-3.36-.24-5.03-.68-8.05-4.94-13.5-12.28-16.61-4.69-1.99-9.7-2.87-14.7-3.34-9.78-.92-19.56-1.12-29.28 1-10.66 2.33-20.08 6.85-27.7 14.84-3.67 3.85-7.36 7.7-11.21 11.38-5.97 5.7-12.81 9.91-20.99 11.77-17.82 4.05-35.59-5.35-41.34-21.97-2.86-8.28-2.32-16.53.28-24.75 2.85-9.01 7.97-16.62 14.45-23.38 9.05-9.44 19.84-16.35 31.66-21.76 16.5-7.54 33.92-11.69 51.9-12.93 23.56-1.62 47.04-.52 70.2 4.66 12.63 2.83 24.8 6.96 35.99 13.59 23.38 13.84 35.59 34.18 35.6 61.55.01 47.63.08 95.27-.05 142.9-.03 11.8.76 23.5 2.3 35.18.4 3.04.64 6.16.42 9.21-1.02 14.47-10.1 24.97-24.6 28.22-10 2.24-20.03 1.82-29.94-.88-12.3-3.36-20.44-11.13-24.67-23.09-.83-2.34-1.67-4.68-2.55-7.01-.06-.22-.44-.31-.97-.63zm-1.22-105.31c-1.71.36-2.82.46-3.83.83-15.54 5.72-31.72 8.92-47.92 12-8.82 1.68-17.4 4.12-25.44 8.21-5.36 2.72-9.84 6.39-12.42 12.01-7.73 16.8.54 34.34 18.41 38.76 12.9 3.19 25.62 1.87 37.91-2.73 15.68-5.86 25.91-17.02 30.8-33.1 3.55-11.73 2.67-23.64 2.49-35.98zm1056.18 433.75c-24.65 0-49.31-.02-73.96.01-7.58.01-7.57.08-6.59 7.46.92 7 2.88 13.7 5.92 20.05 6.3 13.18 16.6 21.69 30.71 25.31 13.62 3.49 27.22 2.92 40.6-1.39 7.01-2.26 13.19-6.04 18.75-10.9 4.43-3.87 8.91-7.68 13.54-11.31 5.82-4.56 12.41-7.56 19.77-8.73 8.31-1.33 16.21-.01 23.59 3.95 14.26 7.65 20.08 23.64 14.59 39.68-1.84 5.36-4.67 10.17-8.13 14.62-5.72 7.37-12.62 13.49-20.14 18.93-14.97 10.83-31.62 17.89-49.56 21.99-24.62 5.62-49.37 6.62-74.16 1.37-43.57-9.23-73.72-34.79-90.93-75.69-6.9-16.39-10.42-33.62-12-51.31-1.88-21.09-.8-41.97 3.56-62.68 2.49-11.83 6.28-23.23 11.6-34.1 15.91-32.53 41.22-54.17 76.05-63.89 32.1-8.95 64.4-8.2 96 2.45 42.27 14.25 68.75 43.71 80.4 86.6 4.14 15.24 5.56 30.83 5.11 46.61-.12 4.24-.78 8.39-1.93 12.42-2.4 8.47-7.87 13.97-16.39 16.46-5.18 1.52-10.46 1.88-15.79 1.91-16.81.08-33.62.12-50.43.16-6.74.04-13.46.02-20.18.02zm-31.85-56.71c12.87 0 25.73.09 38.6-.03 11.43-.1 12.52 2.16 8.95-12.06a53.99 53.99 0 0 0-2.65-7.94c-5.01-11.78-13.64-19.61-25.99-23.15-9.24-2.65-18.62-3.41-28.21-1.97-22.09 3.32-37.39 19.35-39.4 41.58-.2 2.24.51 3.3 2.55 3.42 2.23.14 4.47.13 6.71.13 13.15.03 26.3.02 39.44.02zm-491.74-363.68c-24.66 0-49.32-.02-73.98.01-7.68.01-7.73.08-6.45 7.36.58 3.3 1.22 6.61 2.12 9.84 6.04 21.76 20.28 34.27 42.66 37.22 9.8 1.29 19.58.67 29.16-1.96 8.24-2.26 15.53-6.26 21.98-11.88 4.65-4.04 9.34-8.05 14.23-11.79 5.63-4.32 11.99-7.07 19.08-8.26 6.56-1.1 12.86-.36 19 1.87 17.04 6.18 25.16 23.34 19.51 40.94-2 6.23-5.33 11.7-9.45 16.72-7.18 8.75-15.82 15.83-25.34 21.88-16.32 10.36-34.23 16.63-53.17 19.82-18.61 3.13-37.35 3.73-56.06.78-50.56-7.99-84.44-36.41-101.85-84.28-9.23-25.38-11.51-51.84-9.71-78.67 1.09-16.27 3.92-32.24 9.42-47.65 9.73-27.25 25.96-49.44 50.77-64.89 13.97-8.7 29.21-14.26 45.35-16.98 26.92-4.52 53.7-3.53 79.76 4.93 43.7 14.19 71.2 44.02 82.93 88.33 3.75 14.15 5.17 28.63 5 43.28-.05 4.23-.6 8.39-1.47 12.5-2.11 9.93-7.84 16.41-17.89 19.03-4.96 1.29-9.95 1.59-14.99 1.64-12.61.13-25.22.17-37.83.21-10.93.02-21.85 0-32.78 0zm-32.06-56.54h40.25c2.24 0 4.47.01 6.7-.1 2.09-.11 2.94-1.11 2.69-3.3a59.08 59.08 0 0 0-4.81-17.72c-4.83-10.83-12.91-18.19-24.13-21.8-11.96-3.85-24.21-4.29-36.38-1.08-18.23 4.81-31.37 21.45-32.86 41.21-.13 1.67.76 2.61 2.41 2.69 1.95.1 3.91.09 5.87.1zM650.06 1616.9c-24.66 0-49.32-.02-73.98.01-7.68.01-7.73.08-6.45 7.36.58 3.3 1.22 6.61 2.12 9.84 6.04 21.76 20.28 34.27 42.66 37.22 9.8 1.29 19.58.67 29.16-1.96 8.24-2.26 15.53-6.26 21.98-11.88 4.65-4.04 9.34-8.05 14.23-11.79 5.63-4.32 11.99-7.07 19.08-8.26 6.56-1.1 12.86-.36 19 1.87 17.04 6.18 25.16 23.34 19.51 40.94-2 6.23-5.33 11.7-9.45 16.72-7.18 8.75-15.82 15.83-25.34 21.88-16.32 10.36-34.23 16.63-53.17 19.82-18.61 3.13-37.35 3.73-56.06.78-50.56-7.99-84.44-36.41-101.85-84.28-9.23-25.38-11.51-51.84-9.71-78.67 1.09-16.27 3.92-32.24 9.42-47.65 9.73-27.25 25.96-49.44 50.77-64.89 13.97-8.7 29.21-14.26 45.35-16.98 26.92-4.52 53.7-3.53 79.76 4.93 43.7 14.19 71.2 44.02 82.93 88.33 3.75 14.15 5.17 28.63 5 43.28-.05 4.23-.6 8.39-1.47 12.5-2.11 9.93-7.84 16.41-17.89 19.03-4.96 1.29-9.95 1.59-14.99 1.64-12.61.13-25.22.17-37.83.21-10.92.02-21.85 0-32.78 0zM618 1560.36h40.25c2.24 0 4.47.01 6.7-.1 2.09-.11 2.94-1.11 2.69-3.3a59.08 59.08 0 0 0-4.81-17.72c-4.83-10.83-12.91-18.19-24.13-21.8-11.96-3.85-24.21-4.29-36.38-1.08-18.23 4.81-31.37 21.45-32.86 41.21-.13 1.67.76 2.61 2.41 2.69 1.95.1 3.91.09 5.87.1zm1055.75-239.61c-20.97.43-41.73-2.13-61.9-8.77-13.14-4.32-25.42-10.33-36.27-19.03-6.84-5.48-12.69-11.85-17.08-19.48-4.43-7.7-6.51-15.94-6.47-24.88.06-16.71 11.68-33.33 33.45-35.73 12.71-1.4 23.85 2.27 33.18 11.04 4.08 3.84 8.11 7.77 11.79 11.97 11.06 12.62 25.27 18.17 41.63 18.86 9.52.41 19.05.66 28.46-1.49 3.57-.81 7.03-1.87 10.35-3.38 2.83-1.29 5.38-3.03 7.48-5.33 7.5-8.21 5.1-20.36-4.93-25.08-4.84-2.28-10-3.66-15.17-4.88-16.89-4-33.83-7.82-50.72-11.81-14.46-3.42-28.68-7.6-42.39-13.42-8.54-3.63-16.69-7.94-24.21-13.4-18.78-13.65-28.08-32.15-28.5-55.31-.18-10.18.93-20.16 3.95-29.87 5.87-18.89 17.2-33.78 33.49-44.95 12.42-8.52 26.12-14.15 40.75-17.26 33.82-7.19 67.37-6.01 100.46 4.3 11.02 3.43 21.37 8.4 30.77 15.19 7.34 5.3 13.67 11.57 18.23 19.5 3.73 6.48 5.67 13.44 5.39 20.88-.64 16.88-13.07 29.97-30.06 31.95-9.2 1.07-17.82-.55-25.93-5.1-6.38-3.58-12.33-7.79-17.98-12.38-17.01-13.81-36.49-15.96-57.18-12.35-3.84.67-7.59 1.95-10.97 4.07-3.72 2.33-6.29 5.47-7.47 9.76-1.91 6.92.03 11.98 6.25 15.71 4.12 2.47 8.65 3.95 13.22 5.29 14.26 4.18 28.87 6.84 43.36 10.06 15.31 3.4 30.67 6.56 45.56 11.58 8.24 2.77 16.3 5.96 23.99 10.06 5.96 3.17 11.56 6.86 16.68 11.27 11.49 9.89 18.57 22.37 21.22 37.22 3.02 16.85 1.84 33.54-3.56 49.8-5.76 17.33-16.41 31.08-31.42 41.46-13.57 9.38-28.71 15.03-44.69 18.65-17.29 3.89-34.83 5.46-52.76 5.28zm-865.51 271.71c0-31.66-.02-63.33.01-94.99.01-7.01.23-13.99 2.15-20.82 4.38-15.6 14.82-24.74 30.82-26.91 5.87-.8 11.7-.88 17.58-.1 14.53 1.94 24.15 9.63 28.4 23.77.56 1.87.93 3.8 1.44 5.69.28 1.05 1.81 1.36 2.66.52 1.39-1.38 2.7-2.85 4.06-4.26 13.58-14.1 29.88-23.6 48.97-27.81 23.47-5.18 46.78-4.24 69.53 3.89 21.2 7.57 36.08 21.99 44.9 42.7 3.87 9.09 6.28 18.58 7.5 28.33 1.04 8.33 1.59 16.72 1.58 25.15-.07 46.8-.05 93.59-.02 140.39 0 5.62-.32 11.19-1.26 16.74-3.07 18.24-14.85 29.41-33.17 31.48-5.03.57-10.04.63-15.09.09-19.76-2.12-32.12-14.27-34.32-34.11-.49-4.44-.57-8.95-.58-13.42-.04-38.95.02-77.9-.07-116.85-.02-7-.51-13.99-.89-20.99-.28-5.07-1.54-9.94-3.21-14.72-3.67-10.49-11.15-16.68-21.9-18.61-9.73-1.75-19.52-1.62-29.17.95-19.99 5.3-32.69 19.93-34.9 40.47-.45 4.17-.46 8.39-.47 12.59-.03 38.67-.04 77.34 0 116.01.01 5.62-.32 11.2-1.2 16.74-2.95 18.57-14.93 29.87-33.69 31.91-5.04.55-10.05.55-15.09-.01-18.97-2.09-31.18-13.85-33.68-32.87-.66-4.98-.85-10.06-.86-15.09-.07-31.98-.04-63.92-.03-95.86zM309.2 1320.82c-11.19.25-25.89-1.68-40.2-5.96-36.66-10.96-62.25-34.39-77.17-69.51-6.62-15.58-10.23-31.93-12.02-48.75a224.79 224.79 0 0 1 .08-48.65c1.98-17.94 6.14-35.32 13.8-51.71 15.89-33.97 41.93-56.39 78.05-66.32 32.7-8.99 65.42-8.05 97.61 2.99 17.18 5.89 32.55 14.92 45.32 28.03 6.11 6.27 11.18 13.25 14.9 21.21 2.88 6.16 4.6 12.6 5.09 19.38.89 12.51-3.89 22.43-13.87 29.81-13.18 9.74-31.95 10.17-45.88 1.24-5.72-3.67-10.42-8.46-14.91-13.48-3.36-3.75-6.66-7.58-10.19-11.17-8.66-8.82-19.19-13.43-31.63-13.22-4.47.08-9.03.04-13.38.89-11.28 2.2-19.97 8.4-26.12 18.17-4.39 6.97-7.22 14.59-8.88 22.56-4.78 23.03-5.27 46.15-.41 69.24 1.39 6.59 3.6 12.95 6.75 18.94 9.02 17.15 23.4 24.91 42.58 24.42 13.11-.34 23.86-5.5 32.26-15.5 3.24-3.86 6.13-8.01 9.34-11.9 3.2-3.88 6.32-7.91 9.97-11.35 16.56-15.63 41.11-11.93 54.1.91 8.76 8.66 12.28 19.2 10.66 31.39-1.24 9.35-4.99 17.73-10.29 25.47-4.14 6.04-9.01 11.46-14.37 16.4-20.33 18.72-43.99 30.53-71.43 34.71-8.66 1.32-17.3 1.68-29.76 1.76zm4.99 123.78c24.92-.15 46.73 4.1 67.42 13.69 12.57 5.83 23.88 13.48 33.51 23.51 5.86 6.11 10.77 12.87 14.36 20.58 2.75 5.9 4.5 12.03 5.08 18.53 1.29 14.3-4.3 25.35-16.46 32.52-14.52 8.55-29.33 8.22-43.72-.79-5.75-3.61-10.33-8.56-14.81-13.59-3.54-3.97-7.04-7.99-10.84-11.71-7.93-7.76-17.48-12-28.67-12.16-3.91-.06-7.86-.08-11.75.33-11.45 1.23-20.7 6.46-27.61 15.74a54.853 54.853 0 0 0-9.08 18.81c-7.18 27.04-7.77 54.21-.77 81.4a60.03 60.03 0 0 0 7.71 17.63c7.79 12.1 18.71 19.06 33.22 19.91 3.35.2 6.72.14 10.07-.01 9.98-.43 18.36-4.52 25.51-11.35 4.07-3.89 7.43-8.38 10.77-12.88 3.68-4.95 7.43-9.84 11.94-14.08 17.68-16.61 44.18-11.84 57.01 3.71 6.77 8.21 9.4 17.72 7.98 28.26-.98 7.29-3.4 14.12-7.08 20.52-3.66 6.35-8.1 12.11-13.26 17.29-21.43 21.55-47 34.98-77.24 39.14-21.6 2.97-43.03 2.26-64.19-3.25-38.35-10-65.25-33.43-81.05-69.63-6.89-15.78-10.59-32.41-12.41-49.51-1.73-16.23-1.75-32.43.03-48.65 2-18.23 6.23-35.87 14.11-52.48 17.25-36.35 45.9-58.54 84.87-67.66 12.33-2.89 24.87-4.11 35.35-3.82zm833.4 152.69V1525c0-1.96.05-3.92-.02-5.88-.15-4.27-.51-4.62-4.92-4.81-2.52-.11-5.04-.13-7.56-.23-3.09-.12-6.1-.68-9.08-1.55-11.35-3.33-17.96-10.69-19.88-22.46-.93-5.69-.48-11.22 1.12-16.62 2.38-8.04 7.86-13.4 15.59-16.5 5.28-2.12 10.88-2.55 16.47-2.9 1.95-.12 3.92-.1 5.87-.21 1.25-.07 2.09-.85 2.22-2.05.18-1.67.18-3.35.19-5.03.02-7.84-.05-15.69.04-23.53.07-6.74.73-13.42 2.75-19.9 4.12-13.2 12.92-21.23 26.43-24.24 8.93-1.99 17.81-1.9 26.64.3 12.32 3.07 20.76 10.55 25.04 22.61 2.09 5.88 3.01 11.92 3 18.14-.01 8.41 0 16.81.02 25.22 0 1.96.04 3.92.12 5.88.07 1.68 1.18 2.54 2.68 2.64 2.51.17 5.04.05 7.56.17 4.75.23 9.54.25 14.24.89 15.01 2.04 23.39 11.01 24.83 26.12.43 4.53-.04 9-1.25 13.32-2.44 8.74-8.31 14.42-16.73 17.5-4.51 1.65-9.23 2.3-14.02 2.35-4.48.05-8.96.09-13.44.17-1.98.04-3.1 1.14-3.23 3.08-.14 1.95-.13 3.92-.13 5.88-.01 43.43-.02 86.86.02 130.28 0 3.35.3 6.71.57 10.06.26 3.23 2.22 4.92 5.28 5.68 3.61.9 7.25.68 10.87.33 5.05-.48 10.06-.46 15.07.41 13.62 2.39 22.39 12.12 23.17 25.91.16 2.79.11 5.61-.15 8.39-1.02 11.14-6.43 19.49-16.24 24.92-6.73 3.73-14.06 5.61-21.61 6.38-17.08 1.75-34.13 1.38-51.07-1.59-6.08-1.07-11.99-2.83-17.64-5.36-12.65-5.66-21.43-15.01-26.36-27.96-2.71-7.11-4.33-14.49-5.06-22.04-.88-9.2-1.45-18.43-1.4-27.69.06-17.93 0-35.86 0-53.79zm277.09-530.36c2.93-3.94 4.71-6.42 6.58-8.83 7.29-9.4 15.77-17.45 26.42-22.99 13-6.76 26.65-8.24 40.76-4.46 15.57 4.17 24.97 14.38 28.16 30.11 1.52 7.48 1.38 15.03-.82 22.45-4.34 14.67-15.77 24.08-31.09 25.38-6.7.57-13.41.93-20.12 1.37-5.36.35-10.5 1.64-15.52 3.46-12.35 4.45-20.8 12.92-25.49 25.09-2.12 5.5-3.52 11.23-3.82 17.15-.23 4.47-.36 8.96-.36 13.44-.03 33.34-.03 66.68-.01 100.02 0 7.32-.61 14.54-2.8 21.57-3.91 12.5-12.19 20.54-24.84 23.88-9.66 2.55-19.45 2.59-29.1.09-15.97-4.15-24.2-15.3-26.8-31.02-.77-4.67-.96-9.49-.96-14.24-.06-64.44-.06-128.87-.02-193.31 0-7 .36-13.99 2.37-20.8 4.45-15.06 15.09-24.18 30.6-26.05 7.86-.94 15.67-.88 23.26 1.73 12.54 4.31 19.79 13.16 22.13 26.13.48 2.71.82 5.46 1.47 9.83zm-3.48 419.4c2.11-2.83 3.91-5.31 5.77-7.74 6.53-8.54 14.15-15.92 23.46-21.4 14.84-8.75 30.62-10.71 46.91-5.21 14.22 4.8 22.51 15.11 25.16 29.91 1 5.56 1.12 11.09.18 16.71-2.92 17.54-15.3 29.13-32.94 30.49-6.98.54-13.98.94-20.97 1.45-5.36.39-10.51 1.82-15.44 3.82-15.4 6.26-23.57 18.33-26.74 34.17-1.27 6.33-1.69 12.75-1.68 19.23.07 34.2.03 68.39.04 102.59 0 6.18-.27 12.3-1.85 18.34-4.05 15.44-14.8 25.15-30.54 27.3-8.69 1.19-17.31 1.09-25.81-1.45-11.29-3.37-18.86-10.65-22.85-21.67a53.59 53.59 0 0 1-3.19-16.44c-.09-2.52-.09-5.04-.09-7.57 0-63.91-.01-127.82 0-191.72 0-5.32.07-10.61 1.11-15.9 3.95-20.05 15.01-30.1 35.4-32.03 5.94-.56 11.82-.12 17.5 1.45 14.17 3.91 22.11 13.54 24.66 27.83.25 1.37.24 2.79.39 4.18.12 1.05-.2 2.21 1.52 3.66zm-524.12-419.57c2.92-3.88 4.88-6.56 6.92-9.19 6.42-8.26 13.88-15.41 22.92-20.75 14.26-8.43 29.46-10.42 45.31-5.75 15.88 4.68 25.81 17.18 27.19 33.72.54 6.44.49 12.86-1.54 19.13-4.65 14.36-15.77 23.38-30.78 24.66-6.98.6-13.98.96-20.97 1.45-5.64.39-11.07 1.82-16.27 3.93-14.72 5.99-22.95 17.37-26.41 32.51-1.44 6.31-1.9 12.71-1.89 19.19.06 34.47.02 68.94.03 103.41 0 5.9-.27 11.74-1.58 17.54-3.75 16.71-14.67 26.69-31.73 29.08-8.75 1.22-17.33.85-25.76-1.79-10.58-3.32-17.8-10.27-21.79-20.58-1.83-4.73-2.99-9.63-3.26-14.7-.16-3.08-.2-6.16-.21-9.24-.01-64.46-.01-128.92-.01-193.37 0-6.45.18-12.86 1.82-19.18 4.2-16.22 15.29-25.9 31.97-27.69 7.02-.75 13.99-.69 20.82 1.36 12.66 3.8 20.53 12.09 23.31 25.06.72 3.25 1.14 6.56 1.91 11.2z" fill="#fcfcfd"/><g fill="#f49712"><circle cx="506.49" cy="503.65" r="337.97"/><path d="M2183.06 1057.08h15.74v-19.86c0-20.66 2.62-37.09 7.87-49.28s14.13-21.07 26.64-26.64 29.67-8.35 51.46-8.35c38.58 0 57.88 9.44 57.88 28.33 0 6.14-2.02 11.38-6.05 15.74-4.04 4.36-8.8 6.54-14.29 6.54-2.58 0-7.02-.48-13.32-1.45s-11.62-1.45-15.98-1.45c-11.95 0-19.62 3.51-23.01 10.53s-5.09 17.07-5.09 30.15v15.74h16.23c25.19 0 37.78 7.59 37.78 22.76 0 10.82-3.35 17.68-10.05 20.58-6.7 2.91-15.94 4.36-27.73 4.36h-16.23v175.09c0 13.08-3.11 23.05-9.32 29.91-6.22 6.86-14.25 10.29-24.1 10.29-9.36 0-17.16-3.43-23.37-10.29-6.22-6.86-9.32-16.83-9.32-29.91v-175.09h-18.16c-9.85 0-17.44-2.22-22.76-6.66-5.33-4.44-7.99-10.21-7.99-17.32-.01-15.81 11.05-23.72 33.17-23.72zm411.45 128.59c0 19.7-3.07 37.86-9.2 54.49-6.14 16.63-15.01 30.92-26.64 42.86-11.62 11.95-25.51 21.11-41.65 27.49-16.15 6.38-34.31 9.57-54.49 9.57-20.02 0-38.02-3.23-54-9.69s-29.83-15.7-41.53-27.73c-11.71-12.03-20.58-26.23-26.64-42.62-6.05-16.38-9.08-34.51-9.08-54.37 0-20.02 3.07-38.34 9.2-54.97s14.93-30.84 26.4-42.62c11.46-11.78 25.35-20.87 41.65-27.24 16.31-6.38 34.31-9.57 54-9.57 20.02 0 38.18 3.23 54.49 9.69s30.27 15.66 41.9 27.61c11.62 11.95 20.46 26.15 26.52 42.62 6.04 16.46 9.07 34.62 9.07 54.48zm-66.36 0c0-26.96-5.93-47.95-17.8-62.96s-27.81-22.52-47.83-22.52c-12.92 0-24.3 3.35-34.15 10.05s-17.44 16.59-22.76 29.67c-5.33 13.08-7.99 28.33-7.99 45.77 0 17.28 2.62 32.37 7.87 45.29s12.75 22.81 22.52 29.67 21.27 10.29 34.51 10.29c20.02 0 35.96-7.55 47.83-22.64 11.87-15.11 17.8-35.98 17.8-62.62zm184.05 38.99v55.21c0 13.4-3.15 23.45-9.44 30.15-6.3 6.7-14.29 10.05-23.97 10.05-9.53 0-17.36-3.39-23.49-10.17-6.14-6.78-9.2-16.79-9.2-30.03v-184.05c0-29.7 10.74-44.56 32.21-44.56 10.98 0 18.89 3.47 23.73 10.41s7.51 17.19 7.99 30.76c7.91-13.56 16.02-23.81 24.34-30.76 8.31-6.94 19.41-10.41 33.3-10.41 13.88 0 27.37 3.47 40.44 10.41 13.08 6.94 19.62 16.15 19.62 27.61 0 8.07-2.78 14.73-8.35 19.98s-11.59 7.87-18.04 7.87c-2.42 0-8.28-1.49-17.56-4.48s-17.48-4.48-24.58-4.48c-9.69 0-17.6 2.54-23.73 7.63-6.14 5.09-10.9 12.63-14.29 22.64s-5.73 21.92-7.02 35.72c-1.32 13.81-1.96 30.64-1.96 50.5zm336.61-233.94v100.98c12.43-12.91 25.1-22.8 38.02-29.67 12.91-6.86 28.9-10.29 47.95-10.29 21.95 0 41.21 5.21 57.76 15.62s29.38 25.51 38.5 45.29 13.68 43.23 13.68 70.35c0 20.02-2.54 38.38-7.63 55.09s-12.47 31.2-22.16 43.47-21.43 21.76-35.24 28.45c-13.8 6.7-29.02 10.05-45.65 10.05-10.17 0-19.74-1.21-28.7-3.63s-16.59-5.61-22.89-9.57c-6.3-3.95-11.67-8.03-16.1-12.23-4.44-4.2-10.29-10.49-17.56-18.89v6.54c0 12.43-2.99 21.84-8.96 28.21-5.97 6.38-13.56 9.57-22.76 9.57-9.36 0-16.83-3.19-22.4-9.57s-8.35-15.78-8.35-28.21V993.63c0-13.4 2.7-23.53 8.11-30.39s12.96-10.29 22.64-10.29c10.17 0 18 3.27 23.49 9.81 5.51 6.53 8.25 15.85 8.25 27.96zm3.15 196.4c0 26.32 6.01 46.54 18.04 60.66 12.03 14.13 27.81 21.19 47.34 21.19 16.63 0 30.96-7.22 42.99-21.67s18.04-35.15 18.04-62.12c0-17.44-2.5-32.45-7.51-45.04s-12.11-22.32-21.31-29.18-19.94-10.29-32.21-10.29c-12.59 0-23.82 3.43-33.66 10.29-9.85 6.86-17.6 16.79-23.25 29.79-5.64 12.99-8.47 28.45-8.47 46.37zm311.43 37.54v55.21c0 13.4-3.15 23.45-9.44 30.15-6.3 6.7-14.29 10.05-23.97 10.05-9.53 0-17.36-3.39-23.49-10.17-6.14-6.78-9.2-16.79-9.2-30.03v-184.05c0-29.7 10.74-44.56 32.21-44.56 10.98 0 18.89 3.47 23.73 10.41s7.51 17.19 7.99 30.76c7.91-13.56 16.02-23.81 24.34-30.76 8.31-6.94 19.41-10.41 33.3-10.41 13.88 0 27.37 3.47 40.44 10.41 13.08 6.94 19.62 16.15 19.62 27.61 0 8.07-2.79 14.73-8.35 19.98-5.57 5.25-11.59 7.87-18.04 7.87-2.42 0-8.28-1.49-17.56-4.48s-17.48-4.48-24.58-4.48c-9.69 0-17.6 2.54-23.73 7.63-6.14 5.09-10.9 12.63-14.29 22.64s-5.73 21.92-7.02 35.72c-1.31 13.81-1.96 30.64-1.96 50.5zm185.02-204.15c-9.2 0-17.07-2.82-23.61-8.48-6.54-5.65-9.81-13.64-9.81-23.97 0-9.36 3.35-17.07 10.05-23.13 6.7-6.05 14.49-9.08 23.37-9.08 8.56 0 16.14 2.75 22.76 8.23 6.62 5.49 9.93 13.48 9.93 23.97 0 10.17-3.23 18.12-9.69 23.85-6.45 5.74-14.12 8.61-23 8.61zm32.69 68.29v191.07c0 13.24-3.15 23.25-9.44 30.03-6.3 6.78-14.29 10.17-23.97 10.17s-17.56-3.47-23.61-10.41-9.08-16.87-9.08-29.79v-189.13c0-13.08 3.03-22.92 9.08-29.54s13.92-9.93 23.61-9.93 17.68 3.31 23.97 9.93c6.29 6.61 9.44 15.82 9.44 27.6zm311.43 10.9v192.04c0 21.96-2.34 40.84-7.02 56.67-4.68 15.82-12.19 28.9-22.52 39.23s-23.85 18-40.56 23.01c-16.71 5-37.5 7.51-62.36 7.51-22.76 0-43.11-3.19-61.03-9.57s-31.72-14.61-41.41-24.7-14.53-20.46-14.53-31.12c0-8.07 2.74-14.65 8.23-19.74s12.11-7.63 19.86-7.63c9.69 0 18.16 4.28 25.43 12.83 3.55 4.36 7.22 8.76 11.02 13.2 3.79 4.44 7.99 8.23 12.59 11.38s10.13 5.49 16.59 7.02 13.88 2.3 22.28 2.3c17.11 0 30.39-2.38 39.84-7.14 9.44-4.76 16.06-11.42 19.86-19.98 3.79-8.56 6.01-17.72 6.66-27.49.64-9.77 1.13-25.47 1.45-47.1-10.17 14.21-21.92 25.03-35.24 32.45-13.32 7.43-29.18 11.14-47.59 11.14-22.12 0-41.45-5.65-58-16.95s-29.26-27.12-38.14-47.47c-8.88-20.34-13.32-43.83-13.32-70.47 0-19.86 2.7-37.78 8.11-53.76s13.12-29.46 23.13-40.44 21.55-19.25 34.63-24.82 27.45-8.35 43.11-8.35c18.73 0 34.95 3.59 48.68 10.78 13.72 7.19 26.48 18.45 38.26 33.78v-8.96c0-11.46 2.82-20.34 8.48-26.64 5.65-6.3 12.91-9.44 21.8-9.44 12.75 0 21.23 4.16 25.43 12.47 4.18 8.31 6.28 20.3 6.28 35.96zm-191.55 83.79c0 26.8 5.85 47.06 17.56 60.78 11.7 13.72 26.84 20.58 45.41 20.58 10.98 0 21.35-2.94 31.12-8.84 9.77-5.89 17.72-14.77 23.85-26.64s9.2-26.28 9.2-43.23c0-26.96-5.93-47.95-17.8-62.96s-27.49-22.52-46.86-22.52c-18.89 0-34.02 7.19-45.41 21.55-11.38 14.38-17.07 34.8-17.07 61.28zm323.05-190.35v98.08c8.39-9.69 16.59-17.35 24.58-23.01 7.99-5.65 16.83-9.89 26.52-12.71s20.1-4.24 31.24-4.24c16.79 0 31.68 3.55 44.68 10.66 12.99 7.11 23.21 17.44 30.63 31 4.68 7.91 7.83 16.75 9.44 26.52s2.42 21.03 2.42 33.78v126.65c0 13.24-3.03 23.25-9.08 30.03s-14.09 10.17-24.1 10.17c-21.8 0-32.69-13.4-32.69-40.2v-111.64c0-21.15-3.15-37.42-9.44-48.8s-18.25-17.07-35.84-17.07c-11.79 0-22.4 3.35-31.85 10.05-9.44 6.7-16.51 15.86-21.19 27.49-3.55 9.85-5.33 27.37-5.33 52.55v87.42c0 13.08-2.95 23.05-8.84 29.91s-14.09 10.29-24.58 10.29c-21.8 0-32.69-13.4-32.69-40.2V993.14c0-13.4 2.86-23.45 8.6-30.15 5.73-6.7 13.76-10.05 24.1-10.05 10.49 0 18.69 3.39 24.58 10.17 5.89 6.79 8.84 16.8 8.84 30.03zm238.54 63.94h7.27v-39.72c0-10.66.28-19.01.85-25.06.56-6.05 2.14-11.26 4.72-15.62 2.58-4.52 6.3-8.19 11.14-11.02 4.84-2.82 10.25-4.24 16.23-4.24 8.39 0 15.98 3.15 22.76 9.44 4.52 4.2 7.39 9.32 8.6 15.38s1.82 14.65 1.82 25.79v45.04h24.22c9.36 0 16.51 2.22 21.43 6.66s7.39 10.13 7.39 17.07c0 8.88-3.51 15.1-10.53 18.65s-17.07 5.33-30.15 5.33h-12.35v121.57c0 10.33.36 18.28 1.09 23.85s2.66 10.09 5.81 13.56 8.27 5.21 15.38 5.21c3.88 0 9.12-.69 15.74-2.06s11.78-2.06 15.5-2.06c5.33 0 10.13 2.14 14.41 6.42s6.42 9.57 6.42 15.86c0 10.66-5.81 18.81-17.44 24.46-11.62 5.65-28.33 8.48-50.13 8.48-20.67 0-36.33-3.47-46.98-10.41-10.66-6.94-17.64-16.55-20.95-28.82s-4.96-28.66-4.96-49.16v-126.9h-8.72c-9.53 0-16.79-2.26-21.79-6.78-5.01-4.52-7.51-10.25-7.51-17.19s2.62-12.63 7.87-17.07c5.22-4.44 12.85-6.66 22.86-6.66zM4682 1185.67c0 19.7-3.07 37.86-9.2 54.49-6.14 16.63-15.01 30.92-26.64 42.86-11.62 11.95-25.51 21.11-41.65 27.49-16.15 6.38-34.31 9.57-54.49 9.57-20.02 0-38.02-3.23-54-9.69s-29.83-15.7-41.53-27.73c-11.71-12.03-20.58-26.23-26.64-42.62-6.05-16.38-9.08-34.51-9.08-54.37 0-20.02 3.07-38.34 9.2-54.97s14.93-30.84 26.4-42.62c11.46-11.78 25.35-20.87 41.65-27.24 16.31-6.38 34.31-9.57 54-9.57 20.02 0 38.18 3.23 54.49 9.69s30.27 15.66 41.9 27.61c11.62 11.95 20.46 26.15 26.52 42.62 6.05 16.46 9.07 34.62 9.07 54.48zm-66.35 0c0-26.96-5.93-47.95-17.8-62.96s-27.81-22.52-47.83-22.52c-12.92 0-24.3 3.35-34.15 10.05s-17.44 16.59-22.76 29.67c-5.33 13.08-7.99 28.33-7.99 45.77 0 17.28 2.62 32.37 7.87 45.29s12.75 22.81 22.52 29.67 21.27 10.29 34.51 10.29c20.02 0 35.96-7.55 47.83-22.64 11.87-15.11 17.8-35.98 17.8-62.62zm178.48-97.84v7.99c11.62-15.34 24.34-26.6 38.14-33.78s29.67-10.78 47.59-10.78c17.44 0 33.01 3.79 46.74 11.38 13.72 7.59 23.97 18.33 30.76 32.21 4.36 8.07 7.18 16.79 8.48 26.15 1.29 9.36 1.94 21.31 1.94 35.84v123.02c0 13.24-3.03 23.25-9.08 30.03s-13.92 10.17-23.61 10.17c-9.85 0-17.84-3.47-23.97-10.41-6.14-6.94-9.2-16.87-9.2-29.79v-110.19c0-21.8-3.03-38.46-9.08-50.01-6.05-11.54-18.12-17.32-36.2-17.32-11.79 0-22.52 3.51-32.21 10.53s-16.79 16.67-21.31 28.94c-3.23 9.85-4.84 28.25-4.84 55.21v82.82c0 13.4-3.11 23.45-9.32 30.15-6.22 6.7-14.25 10.05-24.1 10.05-9.53 0-17.36-3.47-23.49-10.41-6.14-6.94-9.2-16.87-9.2-29.79V1088.8c0-12.59 2.74-22 8.23-28.21s12.99-9.32 22.52-9.32c5.81 0 11.06 1.37 15.74 4.12s8.44 6.86 11.26 12.35c2.79 5.48 4.21 12.18 4.21 20.09zm406.12-53.52c0-15.01 3.91-28.7 11.75-41.05 7.83-12.35 19.33-22.16 34.51-29.42 15.17-7.27 33.02-10.9 53.52-10.9 20.34 0 37.94 3.79 52.79 11.38s25.95 17.52 33.3 29.79c7.34 12.27 11.02 25.03 11.02 38.26 0 18.08-5.97 33.82-17.92 47.22s-29.54 27.04-52.79 40.93c8.07 9.53 15.58 18.49 22.52 26.88 6.94 8.4 13.64 16.23 20.1 23.49 6.46 7.27 12.35 13.48 17.68 18.65 2.42-4.52 6.18-12.99 11.26-25.43 5.09-12.43 9.85-21.39 14.29-26.88s10.69-8.23 18.77-8.23c7.59 0 14.29 2.71 20.1 8.11 5.81 5.41 8.72 11.99 8.72 19.74 0 7.11-2.5 17.16-7.51 30.15-5.01 13-12.27 27.41-21.79 43.23 5.97 5.17 15.46 13 28.45 23.49 12.99 10.5 20.99 17.64 23.98 21.43s4.48 8.84 4.48 15.14c0 8.4-3.03 15.46-9.08 21.19s-12.8 8.6-20.22 8.6c-7.59 0-14.94-2.42-22.04-7.27-7.11-4.84-22.2-16.71-45.29-35.6-10.5 9.85-21.35 17.92-32.57 24.22s-23.25 10.98-36.08 14.05c-12.84 3.07-27.16 4.6-42.99 4.6-20.18 0-38.3-2.95-54.37-8.84s-29.42-13.84-40.08-23.85-18.57-21.11-23.73-33.3c-5.17-12.19-7.75-24.58-7.75-37.17 0-12.11 1.94-23.21 5.81-33.3s9.32-19.21 16.35-27.37c7.02-8.15 15.66-15.9 25.91-23.25 10.25-7.34 22.16-14.49 35.72-21.43-12.11-15.17-21.27-28.7-27.49-40.56-6.23-11.87-9.33-24.1-9.33-36.7zm68.53 116c-16.47 9.53-28.78 19.05-36.93 28.58s-12.23 20.83-12.23 33.9c0 7.43 1.49 14.53 4.48 21.31s7.34 13.08 13.08 18.89c5.73 5.81 12.39 10.25 19.98 13.32s15.58 4.6 23.97 4.6c8.23 0 16.23-1.29 23.97-3.87 7.75-2.58 15.09-6.26 22.04-11.02 6.94-4.76 14.13-10.69 21.55-17.8-14.37-13.24-27.29-26.36-38.75-39.35-11.46-13-25.18-29.18-41.16-48.56zm24.7-66.35c16.47-10.49 28.37-19.33 35.72-26.52 7.35-7.18 11.02-15.86 11.02-26.03 0-10.01-3.67-18.4-11.02-25.19-7.35-6.78-16.59-10.17-27.73-10.17s-20.46 3.47-27.97 10.41-11.26 15.1-11.26 24.46c0 4.84 1.41 10.05 4.24 15.62 2.82 5.57 6.33 11.1 10.53 16.59s9.69 12.43 16.47 20.83zm429.61-90.82v98.08c8.39-9.69 16.59-17.35 24.58-23.01 7.99-5.65 16.83-9.89 26.52-12.71s20.1-4.24 31.24-4.24c16.79 0 31.68 3.55 44.68 10.66 12.99 7.11 23.21 17.44 30.63 31 4.68 7.91 7.83 16.75 9.44 26.52s2.42 21.03 2.42 33.78v126.65c0 13.24-3.03 23.25-9.08 30.03s-14.09 10.17-24.1 10.17c-21.8 0-32.69-13.4-32.69-40.2v-111.64c0-21.15-3.15-37.42-9.44-48.8s-18.25-17.07-35.84-17.07c-11.79 0-22.4 3.35-31.85 10.05-9.44 6.7-16.51 15.86-21.19 27.49-3.55 9.85-5.33 27.37-5.33 52.55v87.42c0 13.08-2.95 23.05-8.84 29.91s-14.09 10.29-24.58 10.29c-21.8 0-32.69-13.4-32.69-40.2V993.14c0-13.4 2.86-23.45 8.6-30.15 5.73-6.7 13.76-10.05 24.1-10.05 10.49 0 18.69 3.39 24.58 10.17 5.89 6.79 8.84 16.8 8.84 30.03zm482.4 192.53c0 19.7-3.07 37.86-9.2 54.49-6.14 16.63-15.01 30.92-26.64 42.86-11.62 11.95-25.51 21.11-41.65 27.49-16.15 6.38-34.31 9.57-54.49 9.57-20.02 0-38.02-3.23-54-9.69s-29.83-15.7-41.53-27.73c-11.71-12.03-20.58-26.23-26.64-42.62-6.05-16.38-9.08-34.51-9.08-54.37 0-20.02 3.07-38.34 9.2-54.97s14.93-30.84 26.4-42.62c11.46-11.78 25.35-20.87 41.65-27.24 16.31-6.38 34.31-9.57 54-9.57 20.02 0 38.18 3.23 54.49 9.69s30.27 15.66 41.9 27.61c11.62 11.95 20.46 26.15 26.52 42.62 6.04 16.46 9.07 34.62 9.07 54.48zm-66.35 0c0-26.96-5.93-47.95-17.8-62.96s-27.81-22.52-47.83-22.52c-12.92 0-24.3 3.35-34.15 10.05s-17.44 16.59-22.76 29.67c-5.33 13.08-7.99 28.33-7.99 45.77 0 17.28 2.62 32.37 7.87 45.29s12.75 22.81 22.52 29.67 21.27 10.29 34.51 10.29c20.02 0 35.96-7.55 47.83-22.64 11.86-15.11 17.8-35.98 17.8-62.62zm158.62-93.24l53.52 150.15 57.64-156.68c4.52-12.59 8.96-21.51 13.32-26.76s10.98-7.87 19.86-7.87c8.39 0 15.54 2.83 21.43 8.48s8.84 12.19 8.84 19.62c0 2.91-.53 6.3-1.57 10.17-1.05 3.87-2.26 7.51-3.63 10.9s-2.95 7.27-4.72 11.62L6399 1269.47c-1.78 4.52-4.08 10.25-6.9 17.19-2.83 6.94-5.97 12.88-9.44 17.8-3.47 4.93-7.75 8.76-12.83 11.5-5.09 2.74-11.26 4.12-18.53 4.12-9.36 0-16.83-2.14-22.4-6.42s-9.69-8.96-12.35-14.05-7.14-15.14-13.44-30.15l-62.96-155.71c-1.45-3.87-2.95-7.75-4.48-11.62-1.54-3.87-2.83-7.83-3.88-11.87-1.05-4.03-1.57-7.51-1.57-10.41 0-4.52 1.37-9 4.12-13.44 2.74-4.44 6.54-8.07 11.38-10.9 4.84-2.82 10.09-4.24 15.74-4.24 10.98 0 18.53 3.15 22.64 9.44 4.09 6.3 8.65 16.87 13.66 31.72zm400.06 109.46H6568.5c.16 15.01 3.19 28.25 9.08 39.72 5.89 11.46 13.72 20.1 23.49 25.91s20.54 8.72 32.33 8.72c7.91 0 15.14-.93 21.67-2.78 6.54-1.85 12.87-4.76 19.01-8.72 6.13-3.95 11.78-8.19 16.95-12.71s11.87-10.66 20.1-18.4c3.39-2.91 8.23-4.36 14.53-4.36 6.78 0 12.27 1.86 16.47 5.57 4.2 3.72 6.3 8.96 6.3 15.74 0 5.97-2.34 12.96-7.02 20.95s-11.75 15.66-21.19 23.01-21.31 13.44-35.6 18.28-30.72 7.27-49.28 7.27c-42.46 0-75.48-12.11-99.05-36.33s-35.36-57.07-35.36-98.56c0-19.53 2.91-37.66 8.72-54.37s14.29-31.04 25.43-42.99 24.86-21.11 41.17-27.49 34.39-9.57 54.25-9.57c25.83 0 47.99 5.45 66.48 16.35 18.48 10.9 32.33 24.98 41.53 42.26s13.8 34.87 13.8 52.79c0 16.63-4.76 27.41-14.29 32.33s-22.92 7.38-40.2 7.38zm-129.32-37.53h119.87c-1.62-22.6-7.71-39.51-18.28-50.73-10.58-11.22-24.5-16.83-41.77-16.83-16.47 0-29.99 5.69-40.56 17.07-10.58 11.38-17 28.21-19.26 50.49z"/></g></svg>