<?xml version="1.0" encoding="UTF-8"?>
<!-- Generator: Adobe Illustrator 24.1.3, SVG Export Plug-In . SVG Version: 6.00 Build 0) -->
<svg xmlns="http://www.w3.org/2000/svg" xmlns:xlink="http://www.w3.org/1999/xlink" version="1.1" id="Layer_1" x="0px" y="0px" viewBox="0 0 511 150.356" xml:space="preserve"> <g> <polyline fill="#4E5053" points="70.145,23.141 70.145,46.273 60.135,52.053 50.104,46.292 50.101,23.141 20.046,5.793 0,17.356 0.006,63.625 30.065,80.97 30.06,127.232 60.125,144.587 90.18,127.232 90.18,80.97 120.243,63.621 120.24,17.356 100.198,5.793 "/> <polyline fill="#4E5053" points="240.482,5.793 200.398,28.925 160.324,5.796 130.263,23.147 130.263,127.237 160.324,144.582 180.363,133.023 180.354,75.164 200.398,86.753 220.442,75.186 220.442,133.019 240.473,144.569 270.54,127.234 270.537,23.141 "/> <path fill="#4E5053" d="M440.867,34.688l30.06,17.323l-30.06,17.382 M390.763,34.695v104.092l20.044,11.565l20.035-11.565v-34.697 l20.046-11.561l20.035,11.561v34.697l20.044,11.565L511,138.787V34.695L450.888,0.004L390.763,34.695z"/> <polyline fill="#4E5053" points="360.709,86.748 330.66,104.091 330.643,46.253 360.709,63.608 380.743,52.043 380.749,28.919 330.643,0 280.545,28.912 280.545,121.437 330.651,150.356 380.743,121.445 380.743,98.305 "/> </g> </svg>