<svg xmlns="http://www.w3.org/2000/svg" width="179" height="66" viewBox="0 0 179 66">
  <g fill="none" fill-rule="evenodd">
    <path fill="#44007A" d="M117.00722,56.1784323 L123.866967,56.1784323 C123.814698,55.2306962 123.480926,54.4885829 122.87368,53.9718407 C122.250206,53.4415865 121.495376,53.172735 120.6302,53.172735 C119.744184,53.172735 118.968514,53.4469566 118.324713,53.9876045 C117.69714,54.5145673 117.254047,55.2513104 117.00722,56.1784323 Z M128,56.8962935 C128,57.335256 127.968741,57.7697144 127.906735,58.1877161 C127.845071,58.6050249 127.782553,58.953735 127.720889,59.2246653 L127.709957,59.2719568 L117.008415,59.2719568 C117.276253,60.2165748 117.779473,60.9469085 118.504923,61.4435562 C119.251383,61.9554481 120.184373,62.2149452 121.277929,62.2149452 C122.088445,62.2149452 122.843616,62.0742832 123.522263,61.7971167 C124.203985,61.5183912 124.868625,61.1369408 125.498248,60.6631593 L125.551542,60.6229702 L127.308371,63.6032028 L127.268913,63.636636 C126.405786,64.3666233 125.456057,64.9433028 124.446029,65.3512572 C123.436002,65.7586919 122.32861,65.9653542 121.15443,65.9653542 C119.939425,65.9653542 118.800945,65.7534951 117.77042,65.3354933 C116.739553,64.9176649 115.840555,64.3344026 115.098365,63.6023367 C114.35515,62.869751 113.764473,62.0003144 113.342561,61.0182789 C112.919624,60.0355505 112.705251,58.9540815 112.705251,57.8034941 C112.705251,56.6530799 112.914328,55.571611 113.326846,54.5888825 C113.738851,53.606847 114.313984,52.7374104 115.036018,52.004998 C115.757198,51.2736249 116.619812,50.6903627 117.599776,50.2716681 C118.579227,49.8533199 119.650748,49.6412875 120.784445,49.6412875 C121.856478,49.6412875 122.850107,49.8323592 123.737661,50.2089592 C124.624189,50.5857323 125.393538,51.1059392 126.024186,51.7552017 C126.654322,52.4048106 127.146439,53.1798374 127.487043,54.0589749 C127.827306,54.9377659 128,55.8924312 128,56.8962935 Z M109.496668,49.7977134 C108.648231,49.7977134 107.851039,49.9731944 107.126955,50.3196525 C106.451383,50.6423782 105.858485,51.1126951 105.362269,51.7186504 L105.362269,49.9853204 L101.417474,49.9853204 L101.417474,65.5901401 L105.701507,65.5901401 L105.701507,57.8034941 C105.701507,56.4318664 106.078153,55.4162245 106.821197,54.7849778 C107.567316,54.1511327 108.539935,53.8296196 109.712407,53.8296196 L110.883,53.8296196 L110.883,50.0022969 L110.841834,49.9884386 C110.467237,49.8618081 110.014749,49.7977134 109.496668,49.7977134 Z M92.6275199,65.5901401 L96.9117235,65.5901401 L96.9117235,49.9853204 L92.6275199,49.9853204 L92.6275199,65.5901401 Z M94.7850804,41.7280111 C94.0324708,41.7280111 93.3803003,41.9862957 92.8468459,42.4952426 C92.3123667,43.0054022 92.0414546,43.651893 92.0414546,44.4165261 C92.0414546,45.1603716 92.3123667,45.7961222 92.8468459,46.3062818 C93.3803003,46.815402 94.0324708,47.0736865 94.7850804,47.0736865 C95.5171922,47.0736865 96.1589431,46.815402 96.6923974,46.3062818 C97.2267058,45.7961222 97.4977888,45.1603716 97.4977888,44.4165261 C97.4977888,43.651893 97.2267058,43.0054022 96.6923974,42.4952426 C96.1589431,41.9862957 95.5171922,41.7280111 94.7850804,41.7280111 Z M86.6872676,51.3812002 C86.1905385,50.8357019 85.5817549,50.4043615 84.8779983,50.0996516 C84.1735584,49.7956346 83.3768786,49.6412875 82.5101648,49.6412875 C81.62227,49.6412875 80.8156829,49.7900913 80.1124388,50.0838878 C79.454973,50.3584558 78.8716408,50.7386936 78.3759365,51.2152467 L78.3759365,42.0095084 L74.0917328,42.0095084 L74.0917328,65.5901401 L78.3759365,65.5901401 L78.3759365,56.5209062 C78.3759365,55.6448869 78.640016,54.928065 79.1604884,54.3900156 C79.6811316,53.8521394 80.3722479,53.5793036 81.2148769,53.5793036 C82.0568226,53.5793036 82.7375192,53.846596 83.2378355,54.3739053 C83.7383225,54.9024271 83.9919824,55.6247923 83.9919824,56.5209062 L83.9919824,65.5901401 L88.2454394,65.5901401 L88.2454394,55.9267305 C88.2454394,54.9867897 88.1093001,54.1222035 87.8409502,53.3570507 C87.571917,52.5917248 87.183826,51.9270449 86.6872676,51.3812002 Z M66.8662708,56.1831095 L65.3853073,55.557233 C64.8371629,55.3309958 64.4314779,55.1229477 64.1795263,54.9388052 C63.9369694,54.7619384 63.8189364,54.5325831 63.8189364,54.2377473 C63.8189364,53.8824545 63.9555882,53.6286739 64.2364076,53.4615079 C64.5240595,53.290704 64.9133462,53.2040895 65.3933356,53.2040895 C65.9992153,53.2040895 66.5984333,53.3288144 67.1742497,53.5746264 C67.7504077,53.8207849 68.2891573,54.1850856 68.7751251,54.6571348 L68.8220992,54.7028673 L70.9936665,52.0150453 L70.9588203,51.9758955 C69.5548942,50.4060938 67.6928431,49.6101063 65.424253,49.6101063 C64.6212531,49.6101063 63.8631774,49.7161225 63.1710362,49.9253832 C62.4783826,50.1349903 61.8701114,50.4435113 61.3624501,50.842631 C60.8537639,51.2426169 60.4538867,51.7390914 60.1732381,52.3185426 C59.8929312,52.8979938 59.7506426,53.5753194 59.7506426,54.3314642 C59.7506426,54.9422698 59.8509108,55.4922721 60.0483726,55.9660535 C60.2456636,56.4403547 60.524604,56.8725612 60.8775072,57.2510666 C61.2298979,57.6295721 61.6705999,57.9701404 62.1873143,58.263244 C62.7009542,58.5554814 63.2948769,58.8407897 63.9516594,59.111027 L65.5851605,59.7985731 C66.0531928,60.0052354 66.4341096,60.2037559 66.7178328,60.388418 C66.9897698,60.5656314 67.1219804,60.8147347 67.1219804,61.1501062 C67.1219804,61.5679347 66.9456996,61.8674477 66.58306,62.0661414 C66.2132461,62.2686462 65.7610996,62.371371 65.2390899,62.371371 C64.4301114,62.371371 63.6716941,62.1842836 62.985019,61.8153057 C62.2935611,61.4442491 61.6239674,60.9323573 60.9948569,60.2936617 L60.9480536,60.246197 L58.7781944,62.8997196 L58.8067205,62.9381765 C59.4875879,63.8595818 60.3874398,64.602388 61.4808247,65.1459808 C62.573868,65.6897468 63.8177407,65.9653542 65.1774258,65.9653542 C66.0016067,65.9653542 66.7907707,65.8539679 67.5230533,65.6344867 C68.2570441,65.4143126 68.9018696,65.0898546 69.4395943,64.670467 C69.9788563,64.2498669 70.4099927,63.7218647 70.7210462,63.1015315 C71.0324414,62.4808518 71.1902742,61.7610851 71.1902742,60.9624991 C71.1902742,59.7408878 70.8100407,58.7680335 70.060335,58.071133 C69.3186575,57.3816813 68.2438914,56.7462772 66.8662708,56.1831095 Z M45.5788297,56.1784323 L52.4385774,56.1784323 C52.3864789,55.2306962 52.0525362,54.4885829 51.4452899,53.9718407 C50.8218162,53.4415865 50.0671569,53.172735 49.2018096,53.172735 C48.3157937,53.172735 47.5401241,53.4469566 46.8963235,53.9876045 C46.2687503,54.5145673 45.8256569,55.2513104 45.5788297,56.1784323 Z M56.0586535,54.0589749 C56.3990872,54.9377659 56.5716101,55.8924312 56.5716101,56.8962935 C56.5716101,57.335256 56.540351,57.7697144 56.4783452,58.1877161 C56.4168519,58.6050249 56.3541629,58.953735 56.2924988,59.2246653 L56.2817375,59.2719568 L45.5800254,59.2719568 C45.8478628,60.2165748 46.3510829,60.9469085 47.076533,61.4435562 C47.8229933,61.9554481 48.7559832,62.2149452 49.8495389,62.2149452 C50.6602255,62.2149452 51.4152265,62.0742832 52.0938734,61.7971167 C52.7755948,61.5183912 53.4404057,61.1369408 54.0698579,60.6631593 L54.1233229,60.6229702 L55.8801521,63.6032028 L55.8405231,63.636636 C54.9773964,64.3666233 54.0276666,64.9433028 53.0176393,65.3512572 C52.0076119,65.7586919 50.9000494,65.9653542 49.7260399,65.9653542 C48.5112057,65.9653542 47.3725549,65.7534951 46.3418589,65.3354933 C45.311163,64.9176649 44.4121652,64.3344026 43.6699753,63.6023367 C42.9267605,62.869751 42.3360833,62.0003144 41.9141709,61.0182789 C41.4912337,60.0355505 41.2768613,58.9540815 41.2768613,57.8034941 C41.2768613,56.6530799 41.4859385,55.571611 41.898456,54.5888825 C42.3104611,53.606847 42.8855942,52.7374104 43.6076279,52.004998 C44.3288076,51.2736249 45.1914219,50.6903627 46.1712151,50.2716681 C47.1510082,49.8533199 48.222358,49.6412875 49.3558844,49.6412875 C50.4280883,49.6412875 51.4217175,49.8323592 52.3092707,50.2089592 C53.195799,50.5857323 53.9651485,51.1059392 54.5957964,51.7552017 C55.2259318,52.4048106 55.718049,53.1798374 56.0586535,54.0589749 Z M36.8168893,51.3812002 C36.3201601,50.8357019 35.7113765,50.4043615 35.0074491,50.0996516 C34.3031801,49.7956346 33.5065003,49.6412875 32.6397865,49.6412875 C31.7518916,49.6412875 30.9453046,49.7900913 30.2420605,50.0838878 C29.5847655,50.3584558 29.0012624,50.7386936 28.5055582,51.2152467 L28.5055582,42.0095084 L24.2213545,42.0095084 L24.2213545,65.5901401 L28.5055582,65.5901401 L28.5055582,56.5209062 C28.5055582,55.6448869 28.7696377,54.928065 29.2902809,54.3900156 C29.8109241,53.8521394 30.5018696,53.5793036 31.3444986,53.5793036 C32.1866151,53.5793036 32.8673117,53.846596 33.3674571,54.3739053 C33.8679442,54.9024271 34.1217749,55.6247923 34.1217749,56.5209062 L34.1217749,65.5901401 L38.3750611,65.5901401 L38.3750611,55.9267305 C38.3750611,54.9867897 38.2389217,54.1222035 37.9705718,53.3570507 C37.7015387,52.5917248 37.3134477,51.9270449 36.8168893,51.3812002 Z M6.82063121,48.9764344 C7.45179155,48.3250932 8.20405952,47.8126816 9.05659572,47.4534046 C9.90998599,47.0939543 10.8595449,46.9117173 11.8787963,46.9117173 C13.2746941,46.9117173 14.5042183,47.2417187 15.5338894,47.8925402 C16.5650978,48.5452673 17.4593127,49.4807042 18.1914246,50.673213 L18.2250751,50.7279534 L21.7904904,48.200195 L21.7628184,48.1515177 C20.7739721,46.4204397 19.4129205,45.0342609 17.7174138,44.0319576 C16.0205405,43.0293078 14.0561713,42.5210537 11.8787963,42.5210537 C10.2177941,42.5210537 8.64681124,42.8212597 7.20940548,43.4133566 C5.77217055,44.0058 4.50814172,44.8374727 3.45250684,45.8849887 C2.39670114,46.9326781 1.54860613,48.1854706 0.930940148,49.6088937 C0.313274171,51.0323168 0,52.5972681 0,54.2606135 C0,55.9243053 0.313274171,57.4892566 0.930940148,58.9119868 C1.54860613,60.3361029 2.39687196,61.5890686 3.45250684,62.636065 C4.50814172,63.6841008 5.77217055,64.5156002 7.20940548,65.1075239 C8.64681124,65.699794 10.2177941,66 11.8787963,66 C14.0570254,66 16.0213945,65.4915727 17.7174138,64.4890962 C19.4129205,63.4871393 20.7739721,62.1009605 21.7628184,60.3693628 L21.7904904,60.3206855 L18.2250751,57.7931004 L18.1914246,57.8476675 C17.4593127,59.0405228 16.5650978,59.9761329 15.5338894,60.6283403 C14.5052432,61.2791618 13.2753773,61.6091632 11.8787963,61.6091632 C10.8581784,61.6091632 9.90879028,61.4269262 9.05659572,61.0674759 C8.20440115,60.7088918 7.45213318,60.2020236 6.82028958,59.5612493 C6.18827517,58.9203018 5.68864216,58.1459679 5.33505571,57.2595549 C4.98044439,56.3724489 4.80074731,55.374996 4.80074731,54.2945664 C4.80074731,53.2144832 4.9806152,52.2111406 5.33505571,51.312255 C5.6891546,50.414582 6.18895843,49.6286418 6.82063121,48.9764344 Z M111.921895,25.9096001 C111.699665,25.3781334 111.408426,24.9320685 111.056377,24.5845711 C110.704499,24.2382862 110.296764,23.9801749 109.844617,23.8164734 C109.390079,23.6531184 108.91436,23.5699685 108.430613,23.5699685 C107.906554,23.5699685 107.405896,23.6681894 106.942305,23.8623791 C106.478884,24.0567421 106.065,24.3363338 105.71278,24.6933589 C105.360048,25.0515966 105.079229,25.4969685 104.87818,26.017695 C104.676277,26.5392877 104.573959,27.1261877 104.573959,27.7626313 C104.573959,28.4196891 104.676106,29.0119592 104.878009,29.5224652 C105.079399,30.0341839 105.355436,30.4804219 105.698603,30.8485336 C106.040745,31.215606 106.453945,31.5002213 106.92659,31.6937182 C107.816876,32.0597512 108.848426,32.0885072 109.8137,31.7399704 C110.266188,31.5766154 110.67956,31.323008 111.042199,30.9860775 C111.403814,30.6498399 111.699665,30.2148618 111.922066,29.6930959 C112.143954,29.1711567 112.25635,28.532288 112.25635,27.7938125 C112.25635,27.076471 112.143954,26.4424527 111.921895,25.9096001 Z M112.533924,35.5806317 L112.533924,33.82253 C112.011573,34.4884225 111.351032,35.0093223 110.568188,35.3717175 C109.731196,35.7594041 108.762848,35.9558458 107.690302,35.9558458 C106.596917,35.9558458 105.582278,35.7488371 104.674398,35.3407095 C103.766347,34.932755 102.975987,34.3595401 102.325696,33.6368285 C101.675575,32.914983 101.158006,32.0455464 100.787168,31.0527707 C100.416158,30.0603415 100.228091,28.9639748 100.228091,27.7938125 C100.228091,26.6243432 100.416158,25.52763 100.787168,24.5348543 C101.15869,23.5410392 101.681383,22.6714294 102.341411,21.9502768 C103.00178,21.2279117 103.797093,20.6550432 104.705315,20.2467423 C105.613025,19.8387879 106.617415,19.6317792 107.690302,19.6317792 C108.659334,19.6317792 109.549108,19.8017169 110.335197,20.1369151 C111.070384,20.4511526 111.705473,20.8904615 112.225604,21.4446212 L112.225604,12 L116.47889,12 L116.47889,35.5806317 L112.533924,35.5806317 Z M97.0193368,19.7880318 C96.1710709,19.7880318 95.3737079,19.9636861 94.6497952,20.3099709 C93.9740522,20.6330431 93.3811543,21.1030135 92.8851084,21.7089688 L92.8851084,19.9758121 L88.9401428,19.9758121 L88.9401428,35.5806317 L93.2243464,35.5806317 L93.2243464,27.7938125 C93.2243464,26.4223581 93.6009929,25.4067162 94.343866,24.7754695 C95.0899847,24.1414511 96.0627744,23.8201113 97.2350757,23.8201113 L98.4056689,23.8201113 L98.4056689,19.9927885 L98.3645026,19.9789302 C97.9900767,19.852473 97.5374178,19.7880318 97.0193368,19.7880318 Z M76.2205965,32.3107601 C76.6088583,32.5936431 77.1211316,32.7370768 77.743068,32.7370768 C78.628059,32.7370768 79.387672,32.4580048 80.0010676,31.9080025 C80.6115594,31.3593861 80.9212464,30.6278398 80.9212464,29.7331118 L80.9212464,29.6066546 L77.7121505,29.6066546 C76.3208647,29.6066546 75.6444385,30.0979322 75.6444385,31.1092434 C75.6444385,31.6356865 75.8330179,32.02857 76.2205965,32.3107601 Z M74.3918543,35.5925845 C73.7301181,35.3519694 73.1631841,35.0217948 72.7065964,34.6112419 C72.2494962,34.2003426 71.896593,33.7038681 71.6579649,33.1351572 C71.4195076,32.5673123 71.2985708,31.9384909 71.2985708,31.2658424 C71.2985708,29.8342775 71.8306586,28.7022257 72.8801441,27.901561 C73.9241636,27.1047073 75.3631067,26.7007372 77.1571736,26.7007372 L80.9212464,26.7007372 L80.9212464,26.073648 C80.9212464,25.2398966 80.6885968,24.5809333 80.2296177,24.1149471 C79.7701261,23.6494806 79.0579996,23.4133694 78.1132235,23.4133694 C77.3257677,23.4133694 76.6148369,23.5999371 76.0004164,23.9680489 C75.3808714,24.338759 74.746978,24.8612179 74.1163302,25.5219135 L74.0695269,25.5705908 L71.8665297,22.8832885 L71.8983012,22.8444852 C73.6293374,20.7127285 75.8758924,19.6317792 78.5757897,19.6317792 C79.5443091,19.6317792 80.4434777,19.7750396 81.2480149,20.0572297 C82.0532355,20.3399396 82.7557964,20.7653901 83.3360539,21.3218018 C83.9152866,21.8782136 84.3717035,22.5801377 84.6924935,23.4079993 C85.0124294,24.2360342 85.1747034,25.2170303 85.1747034,26.3237908 L85.1747034,35.5806317 L81.2604844,35.5806317 L81.2604844,34.170374 C80.7396704,34.7068644 80.099286,35.1371653 79.3545339,35.4507099 C78.5583666,35.7859081 77.6426289,35.9558458 76.6327724,35.9558458 C75.808079,35.9558458 75.0539321,35.8335461 74.3918543,35.5925845 Z M61.4587896,23.5384408 C62.3005645,23.5384408 62.9810903,23.8111033 63.4814066,24.3482866 C63.9822353,24.8873755 64.2360659,25.6043705 64.2360659,26.4800434 L64.2360659,35.5806317 L68.4895229,35.5806317 L68.4895229,25.9172222 C68.4895229,24.9772813 68.3533836,24.1128684 68.0848629,23.3473692 C67.8160005,22.5820432 67.4279095,21.9173633 66.9313512,21.3716918 C66.4341096,20.8256738 65.8149063,20.3945067 65.0904811,20.08997 C64.3657143,19.785953 63.5485367,19.6317792 62.6616668,19.6317792 C61.7124495,19.6317792 60.8535931,19.79652 60.108841,20.121671 C59.4115754,20.4263809 58.7971549,20.832603 58.280782,21.3306365 L58.280782,19.9758121 L54.3358164,19.9758121 L54.3358164,35.5806317 L58.62002,35.5806317 L58.62002,26.4800434 C58.62002,25.604024 58.8839287,24.8873755 59.404572,24.3491528 C59.9252152,23.8112766 60.6161607,23.5384408 61.4587896,23.5384408 Z M40.2688837,24.7855168 C39.5528285,25.573016 39.1898472,26.5851934 39.1898472,27.7938125 C39.1898472,29.0022584 39.5526576,30.0038688 40.2683713,30.7700609 C40.9827184,31.5357333 41.9278361,31.9239396 43.0774191,31.9239396 C43.6221472,31.9239396 44.1381784,31.8203486 44.6113352,31.6159384 C45.0841503,31.4123942 45.4975219,31.122582 45.840347,30.7544703 C46.1833429,30.3860121 46.4593795,29.9451441 46.6611116,29.4443389 C46.862673,28.9424944 46.964991,28.387122 46.964991,27.7938125 C46.964991,27.2006762 46.862673,26.640107 46.6609408,26.1275222 C46.458867,25.6159769 46.1826596,25.1697388 45.840347,24.8018003 C45.4976927,24.4342082 45.0839794,24.1390259 44.6104811,23.9242219 C44.1371535,23.7099376 43.6212931,23.6009765 43.0774191,23.6009765 C41.9285194,23.6009765 40.9834016,23.9995766 40.2688837,24.7855168 Z M43.0774191,35.9244914 C41.9442343,35.9244914 40.8624648,35.7126322 39.8623447,35.2944573 C38.8630787,34.8768021 37.9799666,34.2992564 37.2376059,33.5775842 C36.4942203,32.8548725 35.9033723,31.9854359 35.4812891,30.9926602 C35.0585227,30.0000577 34.8439794,28.9132187 34.8439794,27.7626313 C34.8439794,26.6123904 35.0585227,25.5309214 35.4814599,24.5478465 C35.9035431,23.5654645 36.4943911,22.7012248 37.2376059,21.9790329 C37.9787709,21.2585732 38.8567585,20.6806811 39.8468006,20.2619865 C40.8368426,19.8438116 41.9239074,19.6317792 43.0774191,19.6317792 C44.2102622,19.6317792 45.2918609,19.8438116 46.2924935,20.2619865 C47.2929552,20.6806811 48.1760673,21.2585732 48.9174031,21.9790329 C49.659593,22.7003586 50.2555655,23.5642519 50.6887516,24.5473268 C51.1219377,25.5309214 51.3416054,26.6125636 51.3416054,27.7626313 C51.3416054,28.9128722 51.1219377,30.0000577 50.6889224,30.9931799 C50.2560779,31.9863021 49.6601054,32.8557387 48.9174031,33.5775842 C48.1752132,34.2989099 47.2921012,34.8766288 46.2924935,35.2944573 C45.2918609,35.7126322 44.2102622,35.9244914 43.0774191,35.9244914 Z M21.1039861,26.1687508 L27.9637339,26.1687508 C27.9114646,25.2210146 27.5775219,24.4790746 26.9704464,23.9621591 C26.3469727,23.4319049 25.5921425,23.1630535 24.726966,23.1630535 C23.8409502,23.1630535 23.0652806,23.4374483 22.4214799,23.9780961 C21.7939067,24.5048857 21.3508134,25.2418021 21.1039861,26.1687508 Z M25.2511964,35.9558458 C24.0361914,35.9558458 22.8977113,35.7439867 21.8671862,35.325985 C20.8363195,34.9079833 19.9371509,34.3248943 19.1951318,33.5926551 C18.451917,32.8600694 17.8612397,31.9906328 17.4393274,31.0084241 C17.0163902,30.0260421 16.8020177,28.9442267 16.8020177,27.7938125 C16.8020177,26.6433984 17.0110949,25.5619294 17.4237833,24.5793742 C17.8356175,23.5971655 18.4107507,22.7277288 19.1327844,21.9954896 C19.8541349,21.2639433 20.7165784,20.6806811 21.6963715,20.2619865 C22.6761647,19.8438116 23.7475145,19.6317792 24.8812117,19.6317792 C25.9532448,19.6317792 26.946874,19.8228508 27.8344272,20.1994508 C28.7209555,20.576224 29.4903049,21.0960844 30.1209528,21.7455201 C30.7510883,22.3953023 31.2432054,23.1703291 31.58381,24.0492933 C31.9242437,24.9282575 32.0967665,25.8827496 32.0967665,26.8869584 C32.0967665,27.3257476 32.0653366,27.7602061 32.0035017,28.1782078 C31.9420084,28.5953433 31.8793194,28.9442267 31.8176553,29.2149837 L31.806894,29.2622752 L21.1051818,29.2622752 C21.3730193,30.2068932 21.8760686,30.9372269 22.6016895,31.4338746 C23.3481497,31.9457665 24.2811397,32.2054368 25.3746954,32.2054368 C26.185382,32.2054368 26.940383,32.0649481 27.6190298,31.7876083 C28.3007513,31.5088828 28.9653913,31.1272592 29.5948435,30.653651 L29.6483085,30.6132886 L31.4053086,33.5936945 L31.3656796,33.6271277 C30.5025529,34.3571149 29.5528231,34.9337944 28.5427958,35.3417488 C27.5327684,35.7491836 26.4253767,35.9558458 25.2511964,35.9558458 Z M15.0709815,35.5806317 L1.18733302,35.5806317 L1.18733302,13.7319441 L5.69000867,13.7319441 L5.69000867,31.4421896 L15.0709815,31.4421896 L15.0709815,35.5806317 L15.0709815,35.5806317 Z"/>
    <g transform="translate(124)">
      <path fill="#B1243A" d="M0.10690625,40.1124846 C0.218453125,36.6676852 4.3264375,32.6104167 7.81429688,32.5000772 C11.3023281,32.6104167 15.4103125,36.6676852 15.5218594,40.1124846 C15.4101406,43.5571142 11.3023281,47.6145525 7.81429688,47.7247222 C4.32660938,47.6145525 0.21828125,43.5571142 0.10690625,40.1124846"/>
      <polyline fill="#DF5131" points="25.803 38.354 18.084 41.012 16.989 48.502 23.37 54.9 32.109 53.336 33.562 45.067 25.803 38.354"/>
      <polyline fill="#F5BC3F" points="41.995 49.024 54.99 29.895 26.416 31.966 41.995 49.024"/>
      <path fill="#E77B3A" d="M20.1858594,21.2754938 C16.0557031,17.0540741 9.10129687,16.4288735 4.21454688,20.2321914 C8.33645313,28.2526852 12.995125,32.9302315 20.62225,37.0879938 C24.6659531,32.4102778 24.3019219,25.5160957 20.1858594,21.2754938"/>
      <polyline fill="#F6EC50" points="48.996 22.75 29.081 28.942 21.104 16.978 36.959 .143 48.996 22.75"/>
    </g>
  </g>
</svg>