<svg id="Layer_1" data-name="Layer 1" xmlns="http://www.w3.org/2000/svg" xmlns:xlink="http://www.w3.org/1999/xlink" viewBox="0 0 898.85708 187.09178"><defs><style>.cls-1,.cls-4{fill:none;}.cls-2{clip-path:url(#clip-path);}.cls-3{fill:#f85220;}.cls-4{stroke:#929292;}.cls-5{clip-path:url(#clip-path-2);}.cls-6{fill:#fff;}</style><clipPath id="clip-path" transform="translate(-1.07406 -0.83707)"><rect class="cls-1" width="211.02575" height="188.76575"/></clipPath><clipPath id="clip-path-2" transform="translate(-1.07406 -0.83707)"><rect class="cls-1" x="-14.1665" y="-7.81307" width="239.35881" height="216.98983"/></clipPath></defs><g class="cls-2"><rect class="cls-3" x="0.5" y="0.49992" width="207.87764" height="186.09177"/><rect class="cls-4" x="0.5" y="0.5" width="207.87764" height="186.09178"/></g><g class="cls-5"><path class="cls-6" d="M36.43084,94.54929c0-20.75195,15.71533-34.75488,35.86279-34.75488,16.72266,0,25.38624,9.16748,29.81885,18.03222L87.2033,84.87839a16.30157,16.30157,0,0,0-14.90967-9.77148c-10.47656,0-18.23339,8.46191-18.23339,19.44238s7.75683,19.44238,18.23339,19.44238a16.30233,16.30233,0,0,0,14.90967-9.77148l14.90918,7.05176c-4.332,8.66357-13.09619,18.03222-29.81885,18.03222C52.14617,129.30417,36.43084,115.20066,36.43084,94.54929Z" transform="translate(-1.07406 -0.83707)"/><path class="cls-6" d="M102.112,60.90281h19.644l16.52051,48.45507,16.62207-48.45507h19.64453l-25.38672,67.19238H127.39666Z" transform="translate(-1.07406 -0.83707)"/></g><path class="cls-3" d="M265.87736,106.653l8.85645,2.80814q-2.03669,7.40608-6.77406,11.0017-4.73681,3.595-12.01889,3.59447a19.45538,19.45538,0,0,1-14.81218-6.15689q-5.80316-6.15459-5.80144-16.83285,0-11.29428,5.8323-17.54317t15.33677-6.24889q8.301,0,13.48526,4.90654a17.86374,17.86374,0,0,1,4.6288,8.33185l-9.0416,2.16011a9.3466,9.3466,0,0,0-9.53534-7.59125,10.29446,10.29446,0,0,0-8.16269,3.61047q-3.13216,3.61047-3.13159,11.69545,0,8.57872,3.08587,12.22005a10.019,10.019,0,0,0,8.02326,3.64132,9.15161,9.15161,0,0,0,6.26432-2.3144Q264.73388,111.62127,265.87736,106.653Z" transform="translate(-1.07406 -0.83707)"/><path class="cls-3" d="M294.45252,123.28585V104.246L277.8814,78.047h10.708L299.23562,95.945,309.66586,78.047h10.52282l-16.63284,26.26076v18.9781Z" transform="translate(-1.07406 -0.83707)"/><path class="cls-3" d="M324.75577,78.047H342.839a52.29565,52.29565,0,0,1,8.00726.44745,11.7791,11.7791,0,0,1,4.72252,1.867,11.62193,11.62193,0,0,1,3.471,3.78019,10.24159,10.24159,0,0,1,1.38865,5.29227,10.72163,10.72163,0,0,1-6.3569,9.81307,11.9086,11.9086,0,0,1,6.3569,4.10421,10.89406,10.89406,0,0,1,2.22182,6.81977,13.42543,13.42543,0,0,1-1.4355,6.00145,12.08255,12.08255,0,0,1-3.91791,4.6608,12.95054,12.95054,0,0,1-6.126,2.14411q-2.28355.24687-11.01656.30859H324.75577Zm9.13417,7.52952v10.4611h5.98659q5.33856,0,6.63462-.15429a6.04242,6.04242,0,0,0,3.68819-1.62008,4.78038,4.78038,0,0,0,1.34178-3.53332A4.96982,4.96982,0,0,0,350.38449,87.32a5.2427,5.2427,0,0,0-3.44132-1.58922q-1.35779-.15429-7.80725-.1543Zm0,17.99063v12.09661h8.45529a41.32089,41.32089,0,0,0,6.26431-.27773,5.66008,5.66008,0,0,0,3.31789-1.8058,5.55826,5.55826,0,0,0,1.28006-3.84134,5.90181,5.90181,0,0,0-.98748-3.45618,5.58226,5.58226,0,0,0-2.855-2.06753q-1.86694-.648-8.09984-.648Z" transform="translate(-1.07406 -0.83707)"/><path class="cls-3" d="M370.36493,123.28585V78.047h33.54341V85.7H379.49911V95.729h22.712v7.6221h-22.712v12.31262h25.27327v7.6221Z" transform="translate(-1.07406 -0.83707)"/><path class="cls-3" d="M412.54878,123.28585V78.047h19.225q7.25179,0,10.53882,1.21892a10.40191,10.40191,0,0,1,5.26083,4.33565,13.03473,13.03473,0,0,1,1.975,7.12836,12.07558,12.07558,0,0,1-2.99329,8.409q-2.99329,3.31731-8.949,4.18136a21.33874,21.33874,0,0,1,4.89168,3.79562,51.65925,51.65925,0,0,1,5.19912,7.34437l5.52371,8.82559h-10.924l-6.60377-9.84393a64.02142,64.02142,0,0,0-4.81395-6.65062,7.0062,7.0062,0,0,0-2.74643-1.88124,15.01506,15.01506,0,0,0-4.598-.50974H421.683v18.88553ZM421.683,97.17939H428.441q6.5729,0,8.20841-.55546a4.9166,4.9166,0,0,0,2.56128-1.91324,5.89036,5.89036,0,0,0,.92576-3.39446,5.43083,5.43083,0,0,0-1.21835-3.68761,5.5983,5.5983,0,0,0-3.44132-1.77438Q434.36587,85.7,428.81131,85.7H421.683Z" transform="translate(-1.07406 -0.83707)"/><path class="cls-3" d="M487.2577,123.28585l-16.17-45.23886h9.90564L492.442,111.52868,503.52023,78.047h9.68964l-16.20082,45.23886Z" transform="translate(-1.07406 -0.83707)"/><path class="cls-3" d="M516.018,100.94415a28.77374,28.77374,0,0,1,2.06753-11.60287,21.28552,21.28552,0,0,1,4.21279-6.2026,17.59849,17.59849,0,0,1,5.84715-4.07335,24.84636,24.84636,0,0,1,9.75135-1.78981q9.99822,0,16.00081,6.2026,6.0003,6.2026,6.00144,17.25,0,10.95483-5.95573,17.14258-5.95572,6.18717-15.92309,6.1866-10.09079,0-16.04652-6.15689Q516.018,111.74584,516.018,100.94415Zm9.4119-.30859q0,7.68383,3.54875,11.64859a12.19952,12.19952,0,0,0,17.97463.032q3.50245-3.93619,3.503-11.804,0-7.7764-3.40931-11.60288a12.6344,12.6344,0,0,0-18.16092.04629Q525.42991,92.82832,525.42991,100.63556Z" transform="translate(-1.07406 -0.83707)"/><path class="cls-3" d="M567.27431,123.28585V78.41729h9.13418v37.24646h22.712v7.6221Z" transform="translate(-1.07406 -0.83707)"/><path class="cls-3" d="M605.57,78.047h9.13418V102.5488a50.82439,50.82439,0,0,0,.33945,7.56038,7.317,7.317,0,0,0,2.79328,4.45851,9.71788,9.71788,0,0,0,6.03231,1.68237q3.88819,0,5.86315-1.58865a6.27984,6.27984,0,0,0,2.37612-3.90419,50.89493,50.89493,0,0,0,.40116-7.68382V78.047h9.13418v23.7612a61.054,61.054,0,0,1-.74061,11.5103,12.72824,12.72824,0,0,1-2.73157,5.678,13.789,13.789,0,0,1-5.32255,3.68819,23.17985,23.17985,0,0,1-8.70216,1.37264q-6.48032,0-9.82792-1.49608a14.048,14.048,0,0,1-5.29284-3.8882,12.46578,12.46578,0,0,1-2.56127-5.01511A54.94224,54.94224,0,0,1,605.57,102.1785Z" transform="translate(-1.07406 -0.83707)"/><path class="cls-3" d="M651.36428,123.28585V78.047h8.88731l18.51522,30.21067V78.047H687.253v45.23886h-9.165l-18.2375-29.50092v29.50092Z" transform="translate(-1.07406 -0.83707)"/><path class="cls-3" d="M707.0951,123.28585V85.7H693.67156V78.047H729.622V85.7H716.22927v37.5859Z" transform="translate(-1.07406 -0.83707)"/><path class="cls-3" d="M735.516,123.28585V78.047h33.54341V85.7H744.65014V95.729h22.712v7.6221h-22.712v12.31262h25.27328v7.6221Z" transform="translate(-1.07406 -0.83707)"/><path class="cls-3" d="M777.669,123.28585V78.047h33.54341V85.7H786.80313V95.729h22.712v7.6221h-22.712v12.31262h25.27328v7.6221Z" transform="translate(-1.07406 -0.83707)"/><path class="cls-3" d="M819.8528,123.28585V78.047h19.225q7.2518,0,10.53882,1.21892a10.40193,10.40193,0,0,1,5.26084,4.33565,13.03472,13.03472,0,0,1,1.975,7.12836,12.07558,12.07558,0,0,1-2.99329,8.409q-2.9933,3.31731-8.949,4.18136a21.33889,21.33889,0,0,1,4.89167,3.79562,51.65925,51.65925,0,0,1,5.19912,7.34437l5.52371,8.82559h-10.924l-6.60376-9.84393a64.021,64.021,0,0,0-4.814-6.65062,7.00613,7.00613,0,0,0-2.74643-1.88124,15.015,15.015,0,0,0-4.59794-.50974H828.987v18.88553ZM828.987,97.17939H835.745q6.57291,0,8.20842-.55546a4.91657,4.91657,0,0,0,2.56127-1.91324,5.89036,5.89036,0,0,0,.92576-3.39446,5.43083,5.43083,0,0,0-1.21835-3.68761,5.59827,5.59827,0,0,0-3.44131-1.77438Q841.66991,85.7,836.11534,85.7H828.987Z" transform="translate(-1.07406 -0.83707)"/><path class="cls-3" d="M863.14756,108.56625l8.88731-.864q.80232,4.47451,3.255,6.57291a9.84708,9.84708,0,0,0,6.61976,2.09839q4.41279,0,6.64948-1.86752A5.5525,5.5525,0,0,0,890.797,110.14a4.12226,4.12226,0,0,0-.94176-2.73157,7.5307,7.5307,0,0,0-3.28588-1.95895q-1.60465-.55546-7.31352-1.975-7.34436-1.82065-10.3068-4.47451a11.77039,11.77039,0,0,1-4.16593-9.10332,11.62222,11.62222,0,0,1,1.9601-6.4649,12.25942,12.25942,0,0,1,5.646-4.58251,22.63612,22.63612,0,0,1,8.90331-1.5738q8.517,0,12.82122,3.73391a13.17653,13.17653,0,0,1,4.52137,9.96736l-9.13418.40116a7.76143,7.76143,0,0,0-2.51441-5.01454q-1.93038-1.52751-5.78658-1.52751a10.43687,10.43687,0,0,0-6.23346,1.63552,3.29563,3.29563,0,0,0-1.45036,2.80814,3.474,3.474,0,0,0,1.35779,2.74642q1.72809,1.45122,8.39356,3.02416a44.26643,44.26643,0,0,1,9.85879,3.25559,12.69266,12.69266,0,0,1,4.99911,4.59852,14.23817,14.23817,0,0,1-.35431,14.48759,12.94653,12.94653,0,0,1-6.11,5.046,25.6451,25.6451,0,0,1-9.84392,1.65037q-8.57873,0-13.17667-3.96592Q864.04246,116.15863,863.14756,108.56625Z" transform="translate(-1.07406 -0.83707)"/></svg>