<svg id="Layer_1" data-name="Layer 1" xmlns="http://www.w3.org/2000/svg" viewBox="0 0 1344.16164 652.8437">
  <defs>
    <style>
      .cls-1 {
        fill: #eb6c39;
      }
    </style>
  </defs>
  <g id="vI95P6.tif">
    <g>
      <path class="cls-1" d="M787.8612,697.34987q-181.30509-.00573-362.61024-.02963c-40.97908-.02441-71.62238-21.863-77.87818-59.05278-2.70122-16.05849.06719-33.68924,3.36589-49.99737q42.46243-209.92824,86.11864-419.61551c3.19058-15.4796,6.42886-30.95492,10.00653-46.34841A100.592,100.592,0,0,1,544.91893,44.558q364.23383-.06945,728.46767-.00523c54.82715.00733,88.20308,40.87086,77.13908,94.59508q-48.967,237.77181-98.16852,475.49548c-10.30661,49.73882-51.04322,82.657-101.88573,82.68721Q969.16625,697.43833,787.8612,697.34987Zm496.89291-540.42325c-2.31605.45535-3.11189.38437-3.59445.73886Q1090.86505,297.43713,900.63512,437.29664c-42.52168,31.28936-94.51944,27.55283-131.08331-10.75512Q640.38252,291.21089,511.75414,155.36508c-2.26353-2.38139-4.78128-4.52173-8.28733-7.81377-8.63346,41.78538-16.87375,81.4889-25.03622,121.20829q-34.96353,170.13527-69.9111,340.27373c-4.78782,23.23784-1.29142,27.86314,22.15228,27.86328q357.67248.00168,715.345-.00033c27.81757-.0002,42.374-12.13875,48.0184-39.527q34.17786-165.8424,68.49406-331.6563C1269.93062,229.84168,1277.196,193.94238,1284.75411,156.92662ZM549.71448,105.94924c2.20723,2.7414,3.36275,4.40368,4.74064,5.85544q130.235,137.21459,260.55657,274.347c13.36063,14.04039,32.1128,15.04085,47.94348,3.408Q1043.581,256.82951,1224.19564,124.0838c7.61926-5.59988,15.1932-11.261,24.46149-18.13456Z" transform="translate(-8.47659 -44.52584)"/>
      <path class="cls-1" d="M182.96579,369.88153q-70.88363.0051-141.76728-.00547c-13.94522-.00683-24.57234-5.79862-30.01693-18.89365-4.8628-11.69576-3.37186-23.48351,6.125-31.78625,5.78876-5.0609,14.43682-9.62087,21.83153-9.66908,96.31095-.62791,192.62771-.52349,288.94225-.29256a30.08447,30.08447,0,0,1,30.26649,30.26587c-.08219,17.18849-13.10812,30.2003-31.44991,30.29457C278.921,370.04156,230.943,369.8781,182.96579,369.88153Z" transform="translate(-8.47659 -44.52584)"/>
      <path class="cls-1" d="M272.44939,182.1821c-29.5596-.00167-59.11943.07178-88.6787-.02648-21.05342-.07-33.81188-11.86694-33.66115-30.82656.14309-17.996,13.21062-29.5547,33.76408-29.57146q90.30093-.07363,180.6018.05622c15.11389.03531,25.8,8.08915,30.02409,21.69287,3.8095,12.26855-.42019,26.07108-11.97028,32.96815a42.80516,42.80516,0,0,1-20.3243,5.46218C332.2959,182.51119,302.36949,182.18375,272.44939,182.1821Z" transform="translate(-8.47659 -44.52584)"/>
      <path class="cls-1" d="M209.59175,538.50018c-22.33926-.00535-44.67871.05761-67.01765-.02455-19.17017-.07048-32.48026-12.247-32.78777-29.79477-.31152-17.77774,13.38193-30.83241,33.02976-30.89273q67.55751-.20731,135.11605.015c19.88866.05959,33.35133,12.60526,33.351,30.54549-.0003,17.77382-13.66662,30.09291-33.5928,30.14352C254.991,538.54987,232.2913,538.50559,209.59175,538.50018Z" transform="translate(-8.47659 -44.52584)"/>
    </g>
  </g>
</svg>
