<svg id="Layer_1" data-name="Layer 1" xmlns="http://www.w3.org/2000/svg" viewBox="0 0 249.88233 209.82341">
  <defs>
    <style>
      .cls-1, .cls-3 {
        fill: #fff;
      }

      .cls-1, .cls-2, .cls-3 {
        stroke: #eb6c39;
        stroke-miterlimit: 10;
      }

      .cls-1 {
        stroke-width: 11px;
      }

      .cls-2 {
        fill: #eb6c39;
        stroke-width: 4px;
      }

      .cls-3 {
        stroke-width: 10px;
      }
    </style>
  </defs>
  <g>
    <path class="cls-1" d="M697.512,469.73341c-26.20685.00091-52.4141-.069-78.62009.08114-3.65858.021-4.82236-.89645-4.807-4.67771q.20871-51.20407.04146-102.40942a6.14115,6.14115,0,0,1,2.92969-5.73612q38.80979-26.91281,77.45431-54.06293c2.2573-1.58515,3.8059-1.61361,6.1109.00536q38.64678,27.14446,77.471,54.0362a5.74078,5.74078,0,0,1,2.76639,5.31747c-.06032,34.46793-.10668,68.93629.045,103.40363.01729,3.93-1.72853,4.09957-4.77184,4.08981C749.9255,469.69669,723.71871,469.7325,697.512,469.73341Z" transform="translate(-572.54735 -265.49149)"/>
    <path class="cls-2" d="M579.28187,357.55516c-2.73729-.281-3.26838-2.459-4.27911-4.05258-1.41658-2.23351.81714-2.913,1.99824-3.7405,11.66616-8.17392,23.39193-16.26288,35.0964-24.38227,26.80949-18.59775,53.68247-37.10566,80.35307-55.90021,3.9746-2.80088,6.59788-2.53515,10.4027.124q57.22562,39.99489,114.67288,79.67315c2.07685,1.44025,4.19,2.41346,1.93319,5.70282-2.15937,3.1474-3.7839,2.60817-6.39644.78947-36.83854-25.64507-73.77655-51.14794-110.54021-76.89935-3.80694-2.6666-6.25719-2.53545-9.96115.05639q-54.75717,38.31653-109.75088,76.29565C581.5971,356.06378,580.34668,356.85263,579.28187,357.55516Z" transform="translate(-572.54735 -265.49149)"/>
    <path class="cls-3" d="M741.95467,387.16918c-.29632,5.7727-1.65424,10.65668-5.26365,14.64631q-17.00973,18.80172-34.13314,37.50027c-3.71167,4.0282-6.28981,3.98364-9.99741-.04472-11.2225-12.19351-22.47087-24.36792-33.4514-36.7774a21.53226,21.53226,0,0,1,.211-29.01666c7.57914-8.50031,19.62536-9.86491,29.29886-3.40544,3.14932,2.10295,5.65593,6.73039,9.01472,6.369,3.22245-.34669,5.98791-4.30613,9.09481-6.47708,7.43719-5.19678,15.2509-6.00088,23.40657-1.66117C737.90177,372.435,741.35986,379.15876,741.95467,387.16918Z" transform="translate(-572.54735 -265.49149)"/>
  </g>
</svg>
