<svg id="Layer_1" data-name="Layer 1" xmlns="http://www.w3.org/2000/svg" viewBox="0 0 288.6792 152.89661">
  <defs>
    <style>
      .cls-1 {
        fill: #eb6c39;
      }

      .cls-2 {
        fill: #fff;
      }

      .cls-3, .cls-4 {
        fill: none;
      }

      .cls-3 {
        stroke: #fff;
        stroke-width: 9px;
      }

      .cls-4 {
        stroke: #eb6c39;
        stroke-width: 4px;
      }
    </style>
  </defs>
  <path class="cls-1" d="M590.85614,381.01917a43.93561,43.93561,0,0,1,43.06317,35.66009H547.793a43.93561,43.93561,0,0,1,43.06317-35.66009m0-8a51.82876,51.82876,0,0,0-51.82782,51.66009H642.684a51.82877,51.82877,0,0,0-51.82782-51.66009Z" transform="translate(-539.02832 -286)"/>
  <path class="cls-1" d="M775.8797,381.0192a43.93556,43.93556,0,0,1,43.06317,35.66009H732.81653A43.93561,43.93561,0,0,1,775.8797,381.0192m0-8a51.82874,51.82874,0,0,0-51.82782,51.66009H827.70752A51.82871,51.82871,0,0,0,775.8797,373.0192Z" transform="translate(-539.02832 -286)"/>
  <path class="cls-1" d="M683.36792,296a30.684,30.684,0,1,1-30.684,30.684A30.71872,30.71872,0,0,1,683.36792,296m0-10a40.684,40.684,0,1,0,40.684,40.684A40.684,40.684,0,0,0,683.36792,286Z" transform="translate(-539.02832 -286)"/>
  <path class="cls-1" d="M775.8797,309.566a24.01651,24.01651,0,1,1-24.01648,24.01651A24.04375,24.04375,0,0,1,775.8797,309.566m0-8a32.01651,32.01651,0,1,0,32.01654,32.01651A32.01652,32.01652,0,0,0,775.8797,301.566Z" transform="translate(-539.02832 -286)"/>
  <path class="cls-1" d="M590.85614,309.566a24.01651,24.01651,0,1,1-24.01654,24.01651A24.0437,24.0437,0,0,1,590.85614,309.566m0-8a32.01651,32.01651,0,1,0,32.01648,32.01651A32.01653,32.01653,0,0,0,590.85614,301.566Z" transform="translate(-539.02832 -286)"/>
  <g>
    <path class="cls-1" d="M683.36792,380.0192c27.27545,0,49.93433,20.6849,53.43042,47.37741H629.9375c3.49609-26.69251,26.155-47.37741,53.43042-47.37741m0-7c-33.56787,0-60.79041,27.46118-60.89832,61.37741H744.26624c-.10791-33.91623-27.33045-61.37741-60.89832-61.37741Z" transform="translate(-539.02832 -286)"/>
    <g>
      <path class="cls-2" d="M626.085,430.89648c1.896-30.292,26.8999-54.37744,57.2832-54.37744,30.38282,0,55.38672,24.08545,57.28321,54.37744Z" transform="translate(-539.02832 -286)"/>
      <path class="cls-2" d="M683.36792,380.0192c27.27545,0,49.93433,20.6849,53.43042,47.37741H629.9375c3.49609-26.69251,26.155-47.37741,53.43042-47.37741m0-7c-33.56787,0-60.79041,27.46118-60.89832,61.37741H744.26624c-.10791-33.91623-27.33045-61.37741-60.89832-61.37741Z" transform="translate(-539.02832 -286)"/>
    </g>
    <g>
      <path class="cls-3" d="M626.085,430.89648c1.896-30.292,26.8999-54.37744,57.2832-54.37744,30.38282,0,55.38672,24.08545,57.28321,54.37744Z" transform="translate(-539.02832 -286)"/>
      <path class="cls-3" d="M683.36792,380.0192c27.27545,0,49.93433,20.6849,53.43042,47.37741H629.9375c3.49609-26.69251,26.155-47.37741,53.43042-47.37741m0-7c-33.56787,0-60.79041,27.46118-60.89832,61.37741H744.26624c-.10791-33.91623-27.33045-61.37741-60.89832-61.37741Z" transform="translate(-539.02832 -286)"/>
    </g>
    <g>
      <path class="cls-4" d="M626.085,430.89648c1.896-30.292,26.8999-54.37744,57.2832-54.37744,30.38282,0,55.38672,24.08545,57.28321,54.37744Z" transform="translate(-539.02832 -286)"/>
      <path class="cls-4" d="M683.36792,380.0192c27.27545,0,49.93433,20.6849,53.43042,47.37741H629.9375c3.49609-26.69251,26.155-47.37741,53.43042-47.37741m0-7c-33.56787,0-60.79041,27.46118-60.89832,61.37741H744.26624c-.10791-33.91623-27.33045-61.37741-60.89832-61.37741Z" transform="translate(-539.02832 -286)"/>
    </g>
  </g>
</svg>
